<?xml version="1.0" encoding="utf-8" standalone="no"?>
<!DOCTYPE svg PUBLIC "-//W3C//DTD SVG 1.1//EN"
  "http://www.w3.org/Graphics/SVG/1.1/DTD/svg11.dtd">
<svg xmlns:xlink="http://www.w3.org/1999/xlink" width="440.39952pt" height="296.39952pt" viewBox="0 0 440.39952 296.39952" xmlns="http://www.w3.org/2000/svg" version="1.1">
 <metadata>
  <rdf:RDF xmlns:dc="http://purl.org/dc/elements/1.1/" xmlns:cc="http://creativecommons.org/ns#" xmlns:rdf="http://www.w3.org/1999/02/22-rdf-syntax-ns#">
   <cc:Work>
    <dc:type rdf:resource="http://purl.org/dc/dcmitype/StillImage"/>
    <dc:date>2026-05-27T21:57:54.800665</dc:date>
    <dc:format>image/svg+xml</dc:format>
    <dc:creator>
     <cc:Agent>
      <dc:title>Matplotlib v3.10.8, https://matplotlib.org/</dc:title>
     </cc:Agent>
    </dc:creator>
   </cc:Work>
  </rdf:RDF>
 </metadata>
 <defs>
  <style type="text/css">*{stroke-linejoin: round; stroke-linecap: butt}</style>
 </defs>
 <g id="figure_1">
  <g id="patch_1">
   <path d="M 0 296.39952 
L 440.39952 296.39952 
L 440.39952 0 
L 0 0 
L 0 296.39952 
z
" style="fill: none"/>
  </g>
  <g id="axes_1">
   <g id="patch_2">
    <path d="M 57.875938 262.34327 
L 433.19952 262.34327 
L 433.19952 35.412667 
L 57.875938 35.412667 
L 57.875938 262.34327 
z
" style="fill: none"/>
   </g>
   <g id="patch_3">
    <path d="M 52.152306 262.34327 
L 61.167028 262.34327 
L 61.167028 262.34327 
L 52.152306 262.34327 
z
" clip-path="url(#p03c1bdc163)" style="fill: #648fff; stroke: #000000; stroke-width: 0.25; stroke-linejoin: miter"/>
   </g>
   <g id="patch_4">
    <path d="M 61.167028 262.34327 
L 70.182052 262.34327 
L 70.182052 262.34327 
L 61.167028 262.34327 
z
" clip-path="url(#p03c1bdc163)" style="fill: #648fff; stroke: #000000; stroke-width: 0.25; stroke-linejoin: miter"/>
   </g>
   <g id="patch_5">
    <path d="M 70.182431 262.34327 
L 79.197312 262.34327 
L 79.197312 257.01964 
L 70.182431 257.01964 
z
" clip-path="url(#p03c1bdc163)" style="fill: #648fff; stroke: #000000; stroke-width: 0.25; stroke-linejoin: miter"/>
   </g>
   <g id="patch_6">
    <path d="M 79.197664 262.34327 
L 88.212462 262.34327 
L 88.212462 254.779144 
L 79.197664 254.779144 
z
" clip-path="url(#p03c1bdc163)" style="fill: #648fff; stroke: #000000; stroke-width: 0.25; stroke-linejoin: miter"/>
   </g>
   <g id="patch_7">
    <path d="M 88.212462 262.34327 
L 97.227386 262.34327 
L 97.227386 257.310174 
L 88.212462 257.310174 
z
" clip-path="url(#p03c1bdc163)" style="fill: #648fff; stroke: #000000; stroke-width: 0.25; stroke-linejoin: miter"/>
   </g>
   <g id="patch_8">
    <path d="M 97.227386 262.34327 
L 106.2425 262.34327 
L 106.2425 258.285631 
L 97.227386 258.285631 
z
" clip-path="url(#p03c1bdc163)" style="fill: #648fff; stroke: #000000; stroke-width: 0.25; stroke-linejoin: miter"/>
   </g>
   <g id="patch_9">
    <path d="M 106.242216 262.34327 
L 115.25731 262.34327 
L 115.25731 259.284726 
L 106.242216 259.284726 
z
" clip-path="url(#p03c1bdc163)" style="fill: #648fff; stroke: #000000; stroke-width: 0.25; stroke-linejoin: miter"/>
   </g>
   <g id="patch_10">
    <path d="M 115.257838 262.34327 
L 124.272724 262.34327 
L 124.272724 260.12454 
L 115.257838 260.12454 
z
" clip-path="url(#p03c1bdc163)" style="fill: #648fff; stroke: #000000; stroke-width: 0.25; stroke-linejoin: miter"/>
   </g>
   <g id="patch_11">
    <path d="M 124.272724 262.34327 
L 133.28764 262.34327 
L 133.28764 258.72642 
L 124.272724 258.72642 
z
" clip-path="url(#p03c1bdc163)" style="fill: #648fff; stroke: #000000; stroke-width: 0.25; stroke-linejoin: miter"/>
   </g>
   <g id="patch_12">
    <path d="M 133.287411 262.34327 
L 142.302589 262.34327 
L 142.302589 259.620023 
L 133.287411 259.620023 
z
" clip-path="url(#p03c1bdc163)" style="fill: #648fff; stroke: #000000; stroke-width: 0.25; stroke-linejoin: miter"/>
   </g>
   <g id="patch_13">
    <path d="M 142.302589 262.34327 
L 151.317635 262.34327 
L 151.317635 260.211706 
L 142.302589 260.211706 
z
" clip-path="url(#p03c1bdc163)" style="fill: #648fff; stroke: #000000; stroke-width: 0.25; stroke-linejoin: miter"/>
   </g>
   <g id="patch_14">
    <path d="M 151.317635 262.34327 
L 160.332677 262.34327 
L 160.332677 261.167182 
L 151.317635 261.167182 
z
" clip-path="url(#p03c1bdc163)" style="fill: #648fff; stroke: #000000; stroke-width: 0.25; stroke-linejoin: miter"/>
   </g>
   <g id="patch_15">
    <path d="M 160.332677 262.34327 
L 169.347643 262.34327 
L 169.347643 261.854331 
L 160.332677 261.854331 
z
" clip-path="url(#p03c1bdc163)" style="fill: #648fff; stroke: #000000; stroke-width: 0.25; stroke-linejoin: miter"/>
   </g>
   <g id="patch_16">
    <path d="M 169.347986 262.34327 
L 178.363085 262.34327 
L 178.363085 261.638488 
L 169.347986 261.638488 
z
" clip-path="url(#p03c1bdc163)" style="fill: #648fff; stroke: #000000; stroke-width: 0.25; stroke-linejoin: miter"/>
   </g>
   <g id="patch_17">
    <path d="M 178.362925 262.34327 
L 187.378124 262.34327 
L 187.378124 262.185784 
L 178.362925 262.185784 
z
" clip-path="url(#p03c1bdc163)" style="fill: #648fff; stroke: #000000; stroke-width: 0.25; stroke-linejoin: miter"/>
   </g>
   <g id="patch_18">
    <path d="M 187.377827 262.34327 
L 196.392934 262.34327 
L 196.392934 262.204888 
L 187.377827 262.204888 
z
" clip-path="url(#p03c1bdc163)" style="fill: #648fff; stroke: #000000; stroke-width: 0.25; stroke-linejoin: miter"/>
   </g>
   <g id="patch_19">
    <path d="M 196.393073 262.34327 
L 205.408087 262.34327 
L 205.408087 262.274093 
L 196.393073 262.274093 
z
" clip-path="url(#p03c1bdc163)" style="fill: #648fff; stroke: #000000; stroke-width: 0.25; stroke-linejoin: miter"/>
   </g>
   <g id="patch_20">
    <path d="M 205.407959 262.34327 
L 214.423125 262.34327 
L 214.423125 262.247972 
L 205.407959 262.247972 
z
" clip-path="url(#p03c1bdc163)" style="fill: #648fff; stroke: #000000; stroke-width: 0.25; stroke-linejoin: miter"/>
   </g>
   <g id="patch_21">
    <path d="M 214.423125 262.34327 
L 223.438139 262.34327 
L 223.438139 262.300249 
L 214.423125 262.300249 
z
" clip-path="url(#p03c1bdc163)" style="fill: #648fff; stroke: #000000; stroke-width: 0.25; stroke-linejoin: miter"/>
   </g>
   <g id="patch_22">
    <path d="M 223.43825 262.34327 
L 232.453293 262.34327 
L 232.453293 262.175838 
L 223.43825 262.175838 
z
" clip-path="url(#p03c1bdc163)" style="fill: #648fff; stroke: #000000; stroke-width: 0.25; stroke-linejoin: miter"/>
   </g>
   <g id="patch_23">
    <path d="M 232.453293 262.34327 
L 241.468304 262.34327 
L 241.468304 259.395442 
L 232.453293 259.395442 
z
" clip-path="url(#p03c1bdc163)" style="fill: #648fff; stroke: #000000; stroke-width: 0.25; stroke-linejoin: miter"/>
   </g>
   <g id="patch_24">
    <path d="M 241.468304 262.34327 
L 250.483373 262.34327 
L 250.483373 244.237192 
L 241.468304 244.237192 
z
" clip-path="url(#p03c1bdc163)" style="fill: #648fff; stroke: #000000; stroke-width: 0.25; stroke-linejoin: miter"/>
   </g>
   <g id="patch_25">
    <path d="M 250.483283 262.34327 
L 259.498412 262.34327 
L 259.498412 208.866159 
L 250.483283 208.866159 
z
" clip-path="url(#p03c1bdc163)" style="fill: #648fff; stroke: #000000; stroke-width: 0.25; stroke-linejoin: miter"/>
   </g>
   <g id="patch_26">
    <path d="M 259.498412 262.34327 
L 268.513477 262.34327 
L 268.513477 187.74252 
L 259.498412 187.74252 
z
" clip-path="url(#p03c1bdc163)" style="fill: #648fff; stroke: #000000; stroke-width: 0.25; stroke-linejoin: miter"/>
   </g>
   <g id="patch_27">
    <path d="M 268.513477 262.34327 
L 277.528518 262.34327 
L 277.528518 176.221856 
L 268.513477 176.221856 
z
" clip-path="url(#p03c1bdc163)" style="fill: #648fff; stroke: #000000; stroke-width: 0.25; stroke-linejoin: miter"/>
   </g>
   <g id="patch_28">
    <path d="M 277.528518 262.34327 
L 286.543618 262.34327 
L 286.543618 208.656821 
L 277.528518 208.656821 
z
" clip-path="url(#p03c1bdc163)" style="fill: #648fff; stroke: #000000; stroke-width: 0.25; stroke-linejoin: miter"/>
   </g>
   <g id="patch_29">
    <path d="M 286.543618 262.34327 
L 295.558682 262.34327 
L 295.558682 252.796716 
L 286.543618 252.796716 
z
" clip-path="url(#p03c1bdc163)" style="fill: #648fff; stroke: #000000; stroke-width: 0.25; stroke-linejoin: miter"/>
   </g>
   <g id="patch_30">
    <path d="M 295.558682 262.34327 
L 304.573761 262.34327 
L 304.573761 261.273752 
L 295.558682 261.273752 
z
" clip-path="url(#p03c1bdc163)" style="fill: #648fff; stroke: #000000; stroke-width: 0.25; stroke-linejoin: miter"/>
   </g>
   <g id="patch_31">
    <path d="M 304.573761 262.34327 
L 313.588802 262.34327 
L 313.588802 261.831495 
L 304.573761 261.831495 
z
" clip-path="url(#p03c1bdc163)" style="fill: #648fff; stroke: #000000; stroke-width: 0.25; stroke-linejoin: miter"/>
   </g>
   <g id="patch_32">
    <path d="M 313.588802 262.34327 
L 322.603883 262.34327 
L 322.603883 261.606476 
L 313.588802 261.606476 
z
" clip-path="url(#p03c1bdc163)" style="fill: #648fff; stroke: #000000; stroke-width: 0.25; stroke-linejoin: miter"/>
   </g>
   <g id="patch_33">
    <path d="M 322.603883 262.34327 
L 331.618971 262.34327 
L 331.618971 262.264765 
L 322.603883 262.264765 
z
" clip-path="url(#p03c1bdc163)" style="fill: #648fff; stroke: #000000; stroke-width: 0.25; stroke-linejoin: miter"/>
   </g>
   <g id="patch_34">
    <path d="M 331.618924 262.34327 
L 340.63397 262.34327 
L 340.63397 262.291617 
L 331.618924 262.291617 
z
" clip-path="url(#p03c1bdc163)" style="fill: #648fff; stroke: #000000; stroke-width: 0.25; stroke-linejoin: miter"/>
   </g>
   <g id="patch_35">
    <path d="M 340.634014 262.34327 
L 349.649074 262.34327 
L 349.649074 262.34327 
L 340.634014 262.34327 
z
" clip-path="url(#p03c1bdc163)" style="fill: #648fff; stroke: #000000; stroke-width: 0.25; stroke-linejoin: miter"/>
   </g>
   <g id="patch_36">
    <path d="M 349.649033 262.34327 
L 358.664124 262.34327 
L 358.664124 262.274531 
L 349.649033 262.274531 
z
" clip-path="url(#p03c1bdc163)" style="fill: #648fff; stroke: #000000; stroke-width: 0.25; stroke-linejoin: miter"/>
   </g>
   <g id="patch_37">
    <path d="M 358.664086 262.34327 
L 367.679124 262.34327 
L 367.679124 262.34327 
L 358.664086 262.34327 
z
" clip-path="url(#p03c1bdc163)" style="fill: #648fff; stroke: #000000; stroke-width: 0.25; stroke-linejoin: miter"/>
   </g>
   <g id="patch_38">
    <path d="M 367.679124 262.34327 
L 376.694213 262.34327 
L 376.694213 262.34327 
L 367.679124 262.34327 
z
" clip-path="url(#p03c1bdc163)" style="fill: #648fff; stroke: #000000; stroke-width: 0.25; stroke-linejoin: miter"/>
   </g>
   <g id="patch_39">
    <path d="M 376.694213 262.34327 
L 385.709269 262.34327 
L 385.709269 262.34327 
L 376.694213 262.34327 
z
" clip-path="url(#p03c1bdc163)" style="fill: #648fff; stroke: #000000; stroke-width: 0.25; stroke-linejoin: miter"/>
   </g>
   <g id="patch_40">
    <path d="M 385.709299 262.34327 
L 394.724354 262.34327 
L 394.724354 262.34327 
L 385.709299 262.34327 
z
" clip-path="url(#p03c1bdc163)" style="fill: #648fff; stroke: #000000; stroke-width: 0.25; stroke-linejoin: miter"/>
   </g>
   <g id="patch_41">
    <path d="M 394.724325 262.34327 
L 403.739404 262.34327 
L 403.739404 262.34327 
L 394.724325 262.34327 
z
" clip-path="url(#p03c1bdc163)" style="fill: #648fff; stroke: #000000; stroke-width: 0.25; stroke-linejoin: miter"/>
   </g>
   <g id="patch_42">
    <path d="M 403.739377 262.34327 
L 412.754435 262.34327 
L 412.754435 262.34327 
L 403.739377 262.34327 
z
" clip-path="url(#p03c1bdc163)" style="fill: #648fff; stroke: #000000; stroke-width: 0.25; stroke-linejoin: miter"/>
   </g>
   <g id="patch_43">
    <path d="M 412.754435 262.34327 
L 421.7695 262.34327 
L 421.7695 262.34327 
L 412.754435 262.34327 
z
" clip-path="url(#p03c1bdc163)" style="fill: #648fff; stroke: #000000; stroke-width: 0.25; stroke-linejoin: miter"/>
   </g>
   <g id="patch_44">
    <path d="M 421.769477 262.34327 
L 430.784557 262.34327 
L 430.784557 262.34327 
L 421.769477 262.34327 
z
" clip-path="url(#p03c1bdc163)" style="fill: #648fff; stroke: #000000; stroke-width: 0.25; stroke-linejoin: miter"/>
   </g>
   <g id="patch_45">
    <path d="M 430.784557 262.34327 
L 439.799597 262.34327 
L 439.799597 262.34327 
L 430.784557 262.34327 
z
" clip-path="url(#p03c1bdc163)" style="fill: #648fff; stroke: #000000; stroke-width: 0.25; stroke-linejoin: miter"/>
   </g>
   <g id="patch_46">
    <path d="M 439.799617 262.34327 
L 448.814689 262.34327 
L 448.814689 262.34327 
L 439.799617 262.34327 
z
" clip-path="url(#p03c1bdc163)" style="fill: #648fff; stroke: #000000; stroke-width: 0.25; stroke-linejoin: miter"/>
   </g>
   <g id="patch_47">
    <path d="M 448.814689 262.34327 
L 457.829749 262.34327 
L 457.829749 262.34327 
L 448.814689 262.34327 
z
" clip-path="url(#p03c1bdc163)" style="fill: #648fff; stroke: #000000; stroke-width: 0.25; stroke-linejoin: miter"/>
   </g>
   <g id="patch_48">
    <path d="M 457.829766 262.34327 
L 466.844808 262.34327 
L 466.844808 262.34327 
L 457.829766 262.34327 
z
" clip-path="url(#p03c1bdc163)" style="fill: #648fff; stroke: #000000; stroke-width: 0.25; stroke-linejoin: miter"/>
   </g>
   <g id="patch_49">
    <path d="M 466.844824 262.34327 
L 475.859873 262.34327 
L 475.859873 262.34327 
L 466.844824 262.34327 
z
" clip-path="url(#p03c1bdc163)" style="fill: #648fff; stroke: #000000; stroke-width: 0.25; stroke-linejoin: miter"/>
   </g>
   <g id="patch_50">
    <path d="M 475.859843 262.34327 
L 484.874914 262.34327 
L 484.874914 262.34327 
L 475.859843 262.34327 
z
" clip-path="url(#p03c1bdc163)" style="fill: #648fff; stroke: #000000; stroke-width: 0.25; stroke-linejoin: miter"/>
   </g>
   <g id="patch_51">
    <path d="M 484.8749 262.34327 
L 493.88997 262.34327 
L 493.88997 262.34327 
L 484.8749 262.34327 
z
" clip-path="url(#p03c1bdc163)" style="fill: #648fff; stroke: #000000; stroke-width: 0.25; stroke-linejoin: miter"/>
   </g>
   <g id="patch_52">
    <path d="M 493.88997 262.34327 
L 502.905032 262.34327 
L 502.905032 262.34327 
L 493.88997 262.34327 
z
" clip-path="url(#p03c1bdc163)" style="fill: #648fff; stroke: #000000; stroke-width: 0.25; stroke-linejoin: miter"/>
   </g>
   <g id="patch_53">
    <path d="M 502.905032 262.34327 
L 511.920089 262.34327 
L 511.920089 262.34327 
L 502.905032 262.34327 
z
" clip-path="url(#p03c1bdc163)" style="fill: #648fff; stroke: #000000; stroke-width: 0.25; stroke-linejoin: miter"/>
   </g>
   <g id="patch_54">
    <path d="M 511.9201 262.34327 
L 520.935165 262.34327 
L 520.935165 262.34327 
L 511.9201 262.34327 
z
" clip-path="url(#p03c1bdc163)" style="fill: #648fff; stroke: #000000; stroke-width: 0.25; stroke-linejoin: miter"/>
   </g>
   <g id="patch_55">
    <path d="M 520.935155 262.34327 
L 529.950206 262.34327 
L 529.950206 262.34327 
L 520.935155 262.34327 
z
" clip-path="url(#p03c1bdc163)" style="fill: #648fff; stroke: #000000; stroke-width: 0.25; stroke-linejoin: miter"/>
   </g>
   <g id="patch_56">
    <path d="M 529.950206 262.34327 
L 538.965273 262.34327 
L 538.965273 262.34327 
L 529.950206 262.34327 
z
" clip-path="url(#p03c1bdc163)" style="fill: #648fff; stroke: #000000; stroke-width: 0.25; stroke-linejoin: miter"/>
   </g>
   <g id="patch_57">
    <path d="M 538.965273 262.34327 
L 547.980328 262.34327 
L 547.980328 262.34327 
L 538.965273 262.34327 
z
" clip-path="url(#p03c1bdc163)" style="fill: #648fff; stroke: #000000; stroke-width: 0.25; stroke-linejoin: miter"/>
   </g>
   <g id="patch_58">
    <path d="M 547.980328 262.34327 
L 556.99539 262.34327 
L 556.99539 262.34327 
L 547.980328 262.34327 
z
" clip-path="url(#p03c1bdc163)" style="fill: #648fff; stroke: #000000; stroke-width: 0.25; stroke-linejoin: miter"/>
   </g>
   <g id="patch_59">
    <path d="M 556.995398 262.34327 
L 566.010451 262.34327 
L 566.010451 262.34327 
L 556.995398 262.34327 
z
" clip-path="url(#p03c1bdc163)" style="fill: #648fff; stroke: #000000; stroke-width: 0.25; stroke-linejoin: miter"/>
   </g>
   <g id="patch_60">
    <path d="M 566.010451 262.34327 
L 575.025507 262.34327 
L 575.025507 262.34327 
L 566.010451 262.34327 
z
" clip-path="url(#p03c1bdc163)" style="fill: #648fff; stroke: #000000; stroke-width: 0.25; stroke-linejoin: miter"/>
   </g>
   <g id="patch_61">
    <path d="M 575.025514 262.34327 
L 584.040577 262.34327 
L 584.040577 262.34327 
L 575.025514 262.34327 
z
" clip-path="url(#p03c1bdc163)" style="fill: #648fff; stroke: #000000; stroke-width: 0.25; stroke-linejoin: miter"/>
   </g>
   <g id="patch_62">
    <path d="M 52.152306 262.34327 
L 61.167028 262.34327 
L 61.167028 262.34327 
L 52.152306 262.34327 
z
" clip-path="url(#p03c1bdc163)" style="fill: #785ef0; stroke: #000000; stroke-width: 0.25; stroke-linejoin: miter"/>
   </g>
   <g id="patch_63">
    <path d="M 61.167028 262.34327 
L 70.182052 262.34327 
L 70.182052 262.34327 
L 61.167028 262.34327 
z
" clip-path="url(#p03c1bdc163)" style="fill: #785ef0; stroke: #000000; stroke-width: 0.25; stroke-linejoin: miter"/>
   </g>
   <g id="patch_64">
    <path d="M 70.182431 262.34327 
L 79.197312 262.34327 
L 79.197312 256.286077 
L 70.182431 256.286077 
z
" clip-path="url(#p03c1bdc163)" style="fill: #785ef0; stroke: #000000; stroke-width: 0.25; stroke-linejoin: miter"/>
   </g>
   <g id="patch_65">
    <path d="M 79.197664 262.34327 
L 88.212462 262.34327 
L 88.212462 250.227414 
L 79.197664 250.227414 
z
" clip-path="url(#p03c1bdc163)" style="fill: #785ef0; stroke: #000000; stroke-width: 0.25; stroke-linejoin: miter"/>
   </g>
   <g id="patch_66">
    <path d="M 88.212462 262.34327 
L 97.227386 262.34327 
L 97.227386 257.375186 
L 88.212462 257.375186 
z
" clip-path="url(#p03c1bdc163)" style="fill: #785ef0; stroke: #000000; stroke-width: 0.25; stroke-linejoin: miter"/>
   </g>
   <g id="patch_67">
    <path d="M 97.227386 262.34327 
L 106.2425 262.34327 
L 106.2425 258.163985 
L 97.227386 258.163985 
z
" clip-path="url(#p03c1bdc163)" style="fill: #785ef0; stroke: #000000; stroke-width: 0.25; stroke-linejoin: miter"/>
   </g>
   <g id="patch_68">
    <path d="M 106.242216 262.34327 
L 115.25731 262.34327 
L 115.25731 258.056572 
L 106.242216 258.056572 
z
" clip-path="url(#p03c1bdc163)" style="fill: #785ef0; stroke: #000000; stroke-width: 0.25; stroke-linejoin: miter"/>
   </g>
   <g id="patch_69">
    <path d="M 115.257838 262.34327 
L 124.272724 262.34327 
L 124.272724 258.55494 
L 115.257838 258.55494 
z
" clip-path="url(#p03c1bdc163)" style="fill: #785ef0; stroke: #000000; stroke-width: 0.25; stroke-linejoin: miter"/>
   </g>
   <g id="patch_70">
    <path d="M 124.272724 262.34327 
L 133.28764 262.34327 
L 133.28764 258.186007 
L 124.272724 258.186007 
z
" clip-path="url(#p03c1bdc163)" style="fill: #785ef0; stroke: #000000; stroke-width: 0.25; stroke-linejoin: miter"/>
   </g>
   <g id="patch_71">
    <path d="M 133.287411 262.34327 
L 142.302589 262.34327 
L 142.302589 258.901876 
L 133.287411 258.901876 
z
" clip-path="url(#p03c1bdc163)" style="fill: #785ef0; stroke: #000000; stroke-width: 0.25; stroke-linejoin: miter"/>
   </g>
   <g id="patch_72">
    <path d="M 142.302589 262.34327 
L 151.317635 262.34327 
L 151.317635 260.069171 
L 142.302589 260.069171 
z
" clip-path="url(#p03c1bdc163)" style="fill: #785ef0; stroke: #000000; stroke-width: 0.25; stroke-linejoin: miter"/>
   </g>
   <g id="patch_73">
    <path d="M 151.317635 262.34327 
L 160.332677 262.34327 
L 160.332677 260.232773 
L 151.317635 260.232773 
z
" clip-path="url(#p03c1bdc163)" style="fill: #785ef0; stroke: #000000; stroke-width: 0.25; stroke-linejoin: miter"/>
   </g>
   <g id="patch_74">
    <path d="M 160.332677 262.34327 
L 169.347643 262.34327 
L 169.347643 261.36953 
L 160.332677 261.36953 
z
" clip-path="url(#p03c1bdc163)" style="fill: #785ef0; stroke: #000000; stroke-width: 0.25; stroke-linejoin: miter"/>
   </g>
   <g id="patch_75">
    <path d="M 169.347986 262.34327 
L 178.363085 262.34327 
L 178.363085 261.220064 
L 169.347986 261.220064 
z
" clip-path="url(#p03c1bdc163)" style="fill: #785ef0; stroke: #000000; stroke-width: 0.25; stroke-linejoin: miter"/>
   </g>
   <g id="patch_76">
    <path d="M 178.362925 262.34327 
L 187.378124 262.34327 
L 187.378124 262.127341 
L 178.362925 262.127341 
z
" clip-path="url(#p03c1bdc163)" style="fill: #785ef0; stroke: #000000; stroke-width: 0.25; stroke-linejoin: miter"/>
   </g>
   <g id="patch_77">
    <path d="M 187.377827 262.34327 
L 196.392934 262.34327 
L 196.392934 262.191583 
L 187.377827 262.191583 
z
" clip-path="url(#p03c1bdc163)" style="fill: #785ef0; stroke: #000000; stroke-width: 0.25; stroke-linejoin: miter"/>
   </g>
   <g id="patch_78">
    <path d="M 196.393073 262.34327 
L 205.408087 262.34327 
L 205.408087 262.082198 
L 196.393073 262.082198 
z
" clip-path="url(#p03c1bdc163)" style="fill: #785ef0; stroke: #000000; stroke-width: 0.25; stroke-linejoin: miter"/>
   </g>
   <g id="patch_79">
    <path d="M 205.407959 262.34327 
L 214.423125 262.34327 
L 214.423125 262.34327 
L 205.407959 262.34327 
z
" clip-path="url(#p03c1bdc163)" style="fill: #785ef0; stroke: #000000; stroke-width: 0.25; stroke-linejoin: miter"/>
   </g>
   <g id="patch_80">
    <path d="M 214.423125 262.34327 
L 223.438139 262.34327 
L 223.438139 262.34327 
L 214.423125 262.34327 
z
" clip-path="url(#p03c1bdc163)" style="fill: #785ef0; stroke: #000000; stroke-width: 0.25; stroke-linejoin: miter"/>
   </g>
   <g id="patch_81">
    <path d="M 223.43825 262.34327 
L 232.453293 262.34327 
L 232.453293 262.274531 
L 223.43825 262.274531 
z
" clip-path="url(#p03c1bdc163)" style="fill: #785ef0; stroke: #000000; stroke-width: 0.25; stroke-linejoin: miter"/>
   </g>
   <g id="patch_82">
    <path d="M 232.453293 262.34327 
L 241.468304 262.34327 
L 241.468304 261.742168 
L 232.453293 261.742168 
z
" clip-path="url(#p03c1bdc163)" style="fill: #785ef0; stroke: #000000; stroke-width: 0.25; stroke-linejoin: miter"/>
   </g>
   <g id="patch_83">
    <path d="M 241.468304 262.34327 
L 250.483373 262.34327 
L 250.483373 254.646888 
L 241.468304 254.646888 
z
" clip-path="url(#p03c1bdc163)" style="fill: #785ef0; stroke: #000000; stroke-width: 0.25; stroke-linejoin: miter"/>
   </g>
   <g id="patch_84">
    <path d="M 250.483283 262.34327 
L 259.498412 262.34327 
L 259.498412 236.227864 
L 250.483283 236.227864 
z
" clip-path="url(#p03c1bdc163)" style="fill: #785ef0; stroke: #000000; stroke-width: 0.25; stroke-linejoin: miter"/>
   </g>
   <g id="patch_85">
    <path d="M 259.498412 262.34327 
L 268.513477 262.34327 
L 268.513477 211.932612 
L 259.498412 211.932612 
z
" clip-path="url(#p03c1bdc163)" style="fill: #785ef0; stroke: #000000; stroke-width: 0.25; stroke-linejoin: miter"/>
   </g>
   <g id="patch_86">
    <path d="M 268.513477 262.34327 
L 277.528518 262.34327 
L 277.528518 196.569124 
L 268.513477 196.569124 
z
" clip-path="url(#p03c1bdc163)" style="fill: #785ef0; stroke: #000000; stroke-width: 0.25; stroke-linejoin: miter"/>
   </g>
   <g id="patch_87">
    <path d="M 277.528518 262.34327 
L 286.543618 262.34327 
L 286.543618 197.710527 
L 277.528518 197.710527 
z
" clip-path="url(#p03c1bdc163)" style="fill: #785ef0; stroke: #000000; stroke-width: 0.25; stroke-linejoin: miter"/>
   </g>
   <g id="patch_88">
    <path d="M 286.543618 262.34327 
L 295.558682 262.34327 
L 295.558682 234.772088 
L 286.543618 234.772088 
z
" clip-path="url(#p03c1bdc163)" style="fill: #785ef0; stroke: #000000; stroke-width: 0.25; stroke-linejoin: miter"/>
   </g>
   <g id="patch_89">
    <path d="M 295.558682 262.34327 
L 304.573761 262.34327 
L 304.573761 259.221223 
L 295.558682 259.221223 
z
" clip-path="url(#p03c1bdc163)" style="fill: #785ef0; stroke: #000000; stroke-width: 0.25; stroke-linejoin: miter"/>
   </g>
   <g id="patch_90">
    <path d="M 304.573761 262.34327 
L 313.588802 262.34327 
L 313.588802 261.992641 
L 304.573761 261.992641 
z
" clip-path="url(#p03c1bdc163)" style="fill: #785ef0; stroke: #000000; stroke-width: 0.25; stroke-linejoin: miter"/>
   </g>
   <g id="patch_91">
    <path d="M 313.588802 262.34327 
L 322.603883 262.34327 
L 322.603883 262.061787 
L 313.588802 262.061787 
z
" clip-path="url(#p03c1bdc163)" style="fill: #785ef0; stroke: #000000; stroke-width: 0.25; stroke-linejoin: miter"/>
   </g>
   <g id="patch_92">
    <path d="M 322.603883 262.34327 
L 331.618971 262.34327 
L 331.618971 262.282294 
L 322.603883 262.282294 
z
" clip-path="url(#p03c1bdc163)" style="fill: #785ef0; stroke: #000000; stroke-width: 0.25; stroke-linejoin: miter"/>
   </g>
   <g id="patch_93">
    <path d="M 331.618924 262.34327 
L 340.63397 262.34327 
L 340.63397 262.206424 
L 331.618924 262.206424 
z
" clip-path="url(#p03c1bdc163)" style="fill: #785ef0; stroke: #000000; stroke-width: 0.25; stroke-linejoin: miter"/>
   </g>
   <g id="patch_94">
    <path d="M 340.634014 262.34327 
L 349.649074 262.34327 
L 349.649074 262.34327 
L 340.634014 262.34327 
z
" clip-path="url(#p03c1bdc163)" style="fill: #785ef0; stroke: #000000; stroke-width: 0.25; stroke-linejoin: miter"/>
   </g>
   <g id="patch_95">
    <path d="M 349.649033 262.34327 
L 358.664124 262.34327 
L 358.664124 262.34327 
L 349.649033 262.34327 
z
" clip-path="url(#p03c1bdc163)" style="fill: #785ef0; stroke: #000000; stroke-width: 0.25; stroke-linejoin: miter"/>
   </g>
   <g id="patch_96">
    <path d="M 358.664086 262.34327 
L 367.679124 262.34327 
L 367.679124 262.34327 
L 358.664086 262.34327 
z
" clip-path="url(#p03c1bdc163)" style="fill: #785ef0; stroke: #000000; stroke-width: 0.25; stroke-linejoin: miter"/>
   </g>
   <g id="patch_97">
    <path d="M 367.679124 262.34327 
L 376.694213 262.34327 
L 376.694213 262.27504 
L 367.679124 262.27504 
z
" clip-path="url(#p03c1bdc163)" style="fill: #785ef0; stroke: #000000; stroke-width: 0.25; stroke-linejoin: miter"/>
   </g>
   <g id="patch_98">
    <path d="M 376.694213 262.34327 
L 385.709269 262.34327 
L 385.709269 262.34327 
L 376.694213 262.34327 
z
" clip-path="url(#p03c1bdc163)" style="fill: #785ef0; stroke: #000000; stroke-width: 0.25; stroke-linejoin: miter"/>
   </g>
   <g id="patch_99">
    <path d="M 385.709299 262.34327 
L 394.724354 262.34327 
L 394.724354 262.34327 
L 385.709299 262.34327 
z
" clip-path="url(#p03c1bdc163)" style="fill: #785ef0; stroke: #000000; stroke-width: 0.25; stroke-linejoin: miter"/>
   </g>
   <g id="patch_100">
    <path d="M 394.724325 262.34327 
L 403.739404 262.34327 
L 403.739404 262.34327 
L 394.724325 262.34327 
z
" clip-path="url(#p03c1bdc163)" style="fill: #785ef0; stroke: #000000; stroke-width: 0.25; stroke-linejoin: miter"/>
   </g>
   <g id="patch_101">
    <path d="M 403.739377 262.34327 
L 412.754435 262.34327 
L 412.754435 262.34327 
L 403.739377 262.34327 
z
" clip-path="url(#p03c1bdc163)" style="fill: #785ef0; stroke: #000000; stroke-width: 0.25; stroke-linejoin: miter"/>
   </g>
   <g id="patch_102">
    <path d="M 412.754435 262.34327 
L 421.7695 262.34327 
L 421.7695 262.34327 
L 412.754435 262.34327 
z
" clip-path="url(#p03c1bdc163)" style="fill: #785ef0; stroke: #000000; stroke-width: 0.25; stroke-linejoin: miter"/>
   </g>
   <g id="patch_103">
    <path d="M 421.769477 262.34327 
L 430.784557 262.34327 
L 430.784557 262.34327 
L 421.769477 262.34327 
z
" clip-path="url(#p03c1bdc163)" style="fill: #785ef0; stroke: #000000; stroke-width: 0.25; stroke-linejoin: miter"/>
   </g>
   <g id="patch_104">
    <path d="M 430.784557 262.34327 
L 439.799597 262.34327 
L 439.799597 262.34327 
L 430.784557 262.34327 
z
" clip-path="url(#p03c1bdc163)" style="fill: #785ef0; stroke: #000000; stroke-width: 0.25; stroke-linejoin: miter"/>
   </g>
   <g id="patch_105">
    <path d="M 439.799617 262.34327 
L 448.814689 262.34327 
L 448.814689 262.34327 
L 439.799617 262.34327 
z
" clip-path="url(#p03c1bdc163)" style="fill: #785ef0; stroke: #000000; stroke-width: 0.25; stroke-linejoin: miter"/>
   </g>
   <g id="patch_106">
    <path d="M 448.814689 262.34327 
L 457.829749 262.34327 
L 457.829749 262.34327 
L 448.814689 262.34327 
z
" clip-path="url(#p03c1bdc163)" style="fill: #785ef0; stroke: #000000; stroke-width: 0.25; stroke-linejoin: miter"/>
   </g>
   <g id="patch_107">
    <path d="M 457.829766 262.34327 
L 466.844808 262.34327 
L 466.844808 262.34327 
L 457.829766 262.34327 
z
" clip-path="url(#p03c1bdc163)" style="fill: #785ef0; stroke: #000000; stroke-width: 0.25; stroke-linejoin: miter"/>
   </g>
   <g id="patch_108">
    <path d="M 466.844824 262.34327 
L 475.859873 262.34327 
L 475.859873 262.34327 
L 466.844824 262.34327 
z
" clip-path="url(#p03c1bdc163)" style="fill: #785ef0; stroke: #000000; stroke-width: 0.25; stroke-linejoin: miter"/>
   </g>
   <g id="patch_109">
    <path d="M 475.859843 262.34327 
L 484.874914 262.34327 
L 484.874914 262.34327 
L 475.859843 262.34327 
z
" clip-path="url(#p03c1bdc163)" style="fill: #785ef0; stroke: #000000; stroke-width: 0.25; stroke-linejoin: miter"/>
   </g>
   <g id="patch_110">
    <path d="M 484.8749 262.34327 
L 493.88997 262.34327 
L 493.88997 262.34327 
L 484.8749 262.34327 
z
" clip-path="url(#p03c1bdc163)" style="fill: #785ef0; stroke: #000000; stroke-width: 0.25; stroke-linejoin: miter"/>
   </g>
   <g id="patch_111">
    <path d="M 493.88997 262.34327 
L 502.905032 262.34327 
L 502.905032 262.34327 
L 493.88997 262.34327 
z
" clip-path="url(#p03c1bdc163)" style="fill: #785ef0; stroke: #000000; stroke-width: 0.25; stroke-linejoin: miter"/>
   </g>
   <g id="patch_112">
    <path d="M 502.905032 262.34327 
L 511.920089 262.34327 
L 511.920089 262.34327 
L 502.905032 262.34327 
z
" clip-path="url(#p03c1bdc163)" style="fill: #785ef0; stroke: #000000; stroke-width: 0.25; stroke-linejoin: miter"/>
   </g>
   <g id="patch_113">
    <path d="M 511.9201 262.34327 
L 520.935165 262.34327 
L 520.935165 262.34327 
L 511.9201 262.34327 
z
" clip-path="url(#p03c1bdc163)" style="fill: #785ef0; stroke: #000000; stroke-width: 0.25; stroke-linejoin: miter"/>
   </g>
   <g id="patch_114">
    <path d="M 520.935155 262.34327 
L 529.950206 262.34327 
L 529.950206 262.34327 
L 520.935155 262.34327 
z
" clip-path="url(#p03c1bdc163)" style="fill: #785ef0; stroke: #000000; stroke-width: 0.25; stroke-linejoin: miter"/>
   </g>
   <g id="patch_115">
    <path d="M 529.950206 262.34327 
L 538.965273 262.34327 
L 538.965273 262.34327 
L 529.950206 262.34327 
z
" clip-path="url(#p03c1bdc163)" style="fill: #785ef0; stroke: #000000; stroke-width: 0.25; stroke-linejoin: miter"/>
   </g>
   <g id="patch_116">
    <path d="M 538.965273 262.34327 
L 547.980328 262.34327 
L 547.980328 262.34327 
L 538.965273 262.34327 
z
" clip-path="url(#p03c1bdc163)" style="fill: #785ef0; stroke: #000000; stroke-width: 0.25; stroke-linejoin: miter"/>
   </g>
   <g id="patch_117">
    <path d="M 547.980328 262.34327 
L 556.99539 262.34327 
L 556.99539 262.34327 
L 547.980328 262.34327 
z
" clip-path="url(#p03c1bdc163)" style="fill: #785ef0; stroke: #000000; stroke-width: 0.25; stroke-linejoin: miter"/>
   </g>
   <g id="patch_118">
    <path d="M 556.995398 262.34327 
L 566.010451 262.34327 
L 566.010451 262.34327 
L 556.995398 262.34327 
z
" clip-path="url(#p03c1bdc163)" style="fill: #785ef0; stroke: #000000; stroke-width: 0.25; stroke-linejoin: miter"/>
   </g>
   <g id="patch_119">
    <path d="M 566.010451 262.34327 
L 575.025507 262.34327 
L 575.025507 262.34327 
L 566.010451 262.34327 
z
" clip-path="url(#p03c1bdc163)" style="fill: #785ef0; stroke: #000000; stroke-width: 0.25; stroke-linejoin: miter"/>
   </g>
   <g id="patch_120">
    <path d="M 575.025514 262.34327 
L 584.040577 262.34327 
L 584.040577 262.34327 
L 575.025514 262.34327 
z
" clip-path="url(#p03c1bdc163)" style="fill: #785ef0; stroke: #000000; stroke-width: 0.25; stroke-linejoin: miter"/>
   </g>
   <g id="patch_121">
    <path d="M 52.152306 262.34327 
L 61.167028 262.34327 
L 61.167028 262.34327 
L 52.152306 262.34327 
z
" clip-path="url(#p03c1bdc163)" style="fill: #dc267f; stroke: #000000; stroke-width: 0.25; stroke-linejoin: miter"/>
   </g>
   <g id="patch_122">
    <path d="M 61.167028 262.34327 
L 70.182052 262.34327 
L 70.182052 262.34327 
L 61.167028 262.34327 
z
" clip-path="url(#p03c1bdc163)" style="fill: #dc267f; stroke: #000000; stroke-width: 0.25; stroke-linejoin: miter"/>
   </g>
   <g id="patch_123">
    <path d="M 70.182431 262.34327 
L 79.197312 262.34327 
L 79.197312 262.34327 
L 70.182431 262.34327 
z
" clip-path="url(#p03c1bdc163)" style="fill: #dc267f; stroke: #000000; stroke-width: 0.25; stroke-linejoin: miter"/>
   </g>
   <g id="patch_124">
    <path d="M 79.197664 262.34327 
L 88.212462 262.34327 
L 88.212462 262.34327 
L 79.197664 262.34327 
z
" clip-path="url(#p03c1bdc163)" style="fill: #dc267f; stroke: #000000; stroke-width: 0.25; stroke-linejoin: miter"/>
   </g>
   <g id="patch_125">
    <path d="M 88.212462 262.34327 
L 97.227386 262.34327 
L 97.227386 262.273977 
L 88.212462 262.273977 
z
" clip-path="url(#p03c1bdc163)" style="fill: #dc267f; stroke: #000000; stroke-width: 0.25; stroke-linejoin: miter"/>
   </g>
   <g id="patch_126">
    <path d="M 97.227386 262.34327 
L 106.2425 262.34327 
L 106.2425 262.204702 
L 97.227386 262.204702 
z
" clip-path="url(#p03c1bdc163)" style="fill: #dc267f; stroke: #000000; stroke-width: 0.25; stroke-linejoin: miter"/>
   </g>
   <g id="patch_127">
    <path d="M 106.242216 262.34327 
L 115.25731 262.34327 
L 115.25731 262.133523 
L 106.242216 262.133523 
z
" clip-path="url(#p03c1bdc163)" style="fill: #dc267f; stroke: #000000; stroke-width: 0.25; stroke-linejoin: miter"/>
   </g>
   <g id="patch_128">
    <path d="M 115.257838 262.34327 
L 124.272724 262.34327 
L 124.272724 261.851448 
L 115.257838 261.851448 
z
" clip-path="url(#p03c1bdc163)" style="fill: #dc267f; stroke: #000000; stroke-width: 0.25; stroke-linejoin: miter"/>
   </g>
   <g id="patch_129">
    <path d="M 124.272724 262.34327 
L 133.28764 262.34327 
L 133.28764 261.897406 
L 124.272724 261.897406 
z
" clip-path="url(#p03c1bdc163)" style="fill: #dc267f; stroke: #000000; stroke-width: 0.25; stroke-linejoin: miter"/>
   </g>
   <g id="patch_130">
    <path d="M 133.287411 262.34327 
L 142.302589 262.34327 
L 142.302589 262.019034 
L 133.287411 262.019034 
z
" clip-path="url(#p03c1bdc163)" style="fill: #dc267f; stroke: #000000; stroke-width: 0.25; stroke-linejoin: miter"/>
   </g>
   <g id="patch_131">
    <path d="M 142.302589 262.34327 
L 151.317635 262.34327 
L 151.317635 261.939499 
L 142.302589 261.939499 
z
" clip-path="url(#p03c1bdc163)" style="fill: #dc267f; stroke: #000000; stroke-width: 0.25; stroke-linejoin: miter"/>
   </g>
   <g id="patch_132">
    <path d="M 151.317635 262.34327 
L 160.332677 262.34327 
L 160.332677 261.348992 
L 151.317635 261.348992 
z
" clip-path="url(#p03c1bdc163)" style="fill: #dc267f; stroke: #000000; stroke-width: 0.25; stroke-linejoin: miter"/>
   </g>
   <g id="patch_133">
    <path d="M 160.332677 262.34327 
L 169.347643 262.34327 
L 169.347643 259.376037 
L 160.332677 259.376037 
z
" clip-path="url(#p03c1bdc163)" style="fill: #dc267f; stroke: #000000; stroke-width: 0.25; stroke-linejoin: miter"/>
   </g>
   <g id="patch_134">
    <path d="M 169.347986 262.34327 
L 178.363085 262.34327 
L 178.363085 251.849684 
L 169.347986 251.849684 
z
" clip-path="url(#p03c1bdc163)" style="fill: #dc267f; stroke: #000000; stroke-width: 0.25; stroke-linejoin: miter"/>
   </g>
   <g id="patch_135">
    <path d="M 178.362925 262.34327 
L 187.378124 262.34327 
L 187.378124 222.213448 
L 178.362925 222.213448 
z
" clip-path="url(#p03c1bdc163)" style="fill: #dc267f; stroke: #000000; stroke-width: 0.25; stroke-linejoin: miter"/>
   </g>
   <g id="patch_136">
    <path d="M 187.377827 262.34327 
L 196.392934 262.34327 
L 196.392934 157.816839 
L 187.377827 157.816839 
z
" clip-path="url(#p03c1bdc163)" style="fill: #dc267f; stroke: #000000; stroke-width: 0.25; stroke-linejoin: miter"/>
   </g>
   <g id="patch_137">
    <path d="M 196.393073 262.34327 
L 205.408087 262.34327 
L 205.408087 82.988236 
L 196.393073 82.988236 
z
" clip-path="url(#p03c1bdc163)" style="fill: #dc267f; stroke: #000000; stroke-width: 0.25; stroke-linejoin: miter"/>
   </g>
   <g id="patch_138">
    <path d="M 205.407959 262.34327 
L 214.423125 262.34327 
L 214.423125 100.034904 
L 205.407959 100.034904 
z
" clip-path="url(#p03c1bdc163)" style="fill: #dc267f; stroke: #000000; stroke-width: 0.25; stroke-linejoin: miter"/>
   </g>
   <g id="patch_139">
    <path d="M 214.423125 262.34327 
L 223.438139 262.34327 
L 223.438139 184.219683 
L 214.423125 184.219683 
z
" clip-path="url(#p03c1bdc163)" style="fill: #dc267f; stroke: #000000; stroke-width: 0.25; stroke-linejoin: miter"/>
   </g>
   <g id="patch_140">
    <path d="M 223.43825 262.34327 
L 232.453293 262.34327 
L 232.453293 243.127143 
L 223.43825 243.127143 
z
" clip-path="url(#p03c1bdc163)" style="fill: #dc267f; stroke: #000000; stroke-width: 0.25; stroke-linejoin: miter"/>
   </g>
   <g id="patch_141">
    <path d="M 232.453293 262.34327 
L 241.468304 262.34327 
L 241.468304 258.30752 
L 232.453293 258.30752 
z
" clip-path="url(#p03c1bdc163)" style="fill: #dc267f; stroke: #000000; stroke-width: 0.25; stroke-linejoin: miter"/>
   </g>
   <g id="patch_142">
    <path d="M 241.468304 262.34327 
L 250.483373 262.34327 
L 250.483373 260.429282 
L 241.468304 260.429282 
z
" clip-path="url(#p03c1bdc163)" style="fill: #dc267f; stroke: #000000; stroke-width: 0.25; stroke-linejoin: miter"/>
   </g>
   <g id="patch_143">
    <path d="M 250.483283 262.34327 
L 259.498412 262.34327 
L 259.498412 261.551839 
L 250.483283 261.551839 
z
" clip-path="url(#p03c1bdc163)" style="fill: #dc267f; stroke: #000000; stroke-width: 0.25; stroke-linejoin: miter"/>
   </g>
   <g id="patch_144">
    <path d="M 259.498412 262.34327 
L 268.513477 262.34327 
L 268.513477 261.89232 
L 259.498412 261.89232 
z
" clip-path="url(#p03c1bdc163)" style="fill: #dc267f; stroke: #000000; stroke-width: 0.25; stroke-linejoin: miter"/>
   </g>
   <g id="patch_145">
    <path d="M 268.513477 262.34327 
L 277.528518 262.34327 
L 277.528518 262.272101 
L 268.513477 262.272101 
z
" clip-path="url(#p03c1bdc163)" style="fill: #dc267f; stroke: #000000; stroke-width: 0.25; stroke-linejoin: miter"/>
   </g>
   <g id="patch_146">
    <path d="M 277.528518 262.34327 
L 286.543618 262.34327 
L 286.543618 262.34327 
L 277.528518 262.34327 
z
" clip-path="url(#p03c1bdc163)" style="fill: #dc267f; stroke: #000000; stroke-width: 0.25; stroke-linejoin: miter"/>
   </g>
   <g id="patch_147">
    <path d="M 286.543618 262.34327 
L 295.558682 262.34327 
L 295.558682 262.274281 
L 286.543618 262.274281 
z
" clip-path="url(#p03c1bdc163)" style="fill: #dc267f; stroke: #000000; stroke-width: 0.25; stroke-linejoin: miter"/>
   </g>
   <g id="patch_148">
    <path d="M 295.558682 262.34327 
L 304.573761 262.34327 
L 304.573761 262.274312 
L 295.558682 262.274312 
z
" clip-path="url(#p03c1bdc163)" style="fill: #dc267f; stroke: #000000; stroke-width: 0.25; stroke-linejoin: miter"/>
   </g>
   <g id="patch_149">
    <path d="M 304.573761 262.34327 
L 313.588802 262.34327 
L 313.588802 262.34327 
L 304.573761 262.34327 
z
" clip-path="url(#p03c1bdc163)" style="fill: #dc267f; stroke: #000000; stroke-width: 0.25; stroke-linejoin: miter"/>
   </g>
   <g id="patch_150">
    <path d="M 313.588802 262.34327 
L 322.603883 262.34327 
L 322.603883 262.34327 
L 313.588802 262.34327 
z
" clip-path="url(#p03c1bdc163)" style="fill: #dc267f; stroke: #000000; stroke-width: 0.25; stroke-linejoin: miter"/>
   </g>
   <g id="patch_151">
    <path d="M 322.603883 262.34327 
L 331.618971 262.34327 
L 331.618971 262.34327 
L 322.603883 262.34327 
z
" clip-path="url(#p03c1bdc163)" style="fill: #dc267f; stroke: #000000; stroke-width: 0.25; stroke-linejoin: miter"/>
   </g>
   <g id="patch_152">
    <path d="M 331.618924 262.34327 
L 340.63397 262.34327 
L 340.63397 262.34327 
L 331.618924 262.34327 
z
" clip-path="url(#p03c1bdc163)" style="fill: #dc267f; stroke: #000000; stroke-width: 0.25; stroke-linejoin: miter"/>
   </g>
   <g id="patch_153">
    <path d="M 340.634014 262.34327 
L 349.649074 262.34327 
L 349.649074 262.34327 
L 340.634014 262.34327 
z
" clip-path="url(#p03c1bdc163)" style="fill: #dc267f; stroke: #000000; stroke-width: 0.25; stroke-linejoin: miter"/>
   </g>
   <g id="patch_154">
    <path d="M 349.649033 262.34327 
L 358.664124 262.34327 
L 358.664124 262.34327 
L 349.649033 262.34327 
z
" clip-path="url(#p03c1bdc163)" style="fill: #dc267f; stroke: #000000; stroke-width: 0.25; stroke-linejoin: miter"/>
   </g>
   <g id="patch_155">
    <path d="M 358.664086 262.34327 
L 367.679124 262.34327 
L 367.679124 262.34327 
L 358.664086 262.34327 
z
" clip-path="url(#p03c1bdc163)" style="fill: #dc267f; stroke: #000000; stroke-width: 0.25; stroke-linejoin: miter"/>
   </g>
   <g id="patch_156">
    <path d="M 367.679124 262.34327 
L 376.694213 262.34327 
L 376.694213 262.34327 
L 367.679124 262.34327 
z
" clip-path="url(#p03c1bdc163)" style="fill: #dc267f; stroke: #000000; stroke-width: 0.25; stroke-linejoin: miter"/>
   </g>
   <g id="patch_157">
    <path d="M 376.694213 262.34327 
L 385.709269 262.34327 
L 385.709269 262.34327 
L 376.694213 262.34327 
z
" clip-path="url(#p03c1bdc163)" style="fill: #dc267f; stroke: #000000; stroke-width: 0.25; stroke-linejoin: miter"/>
   </g>
   <g id="patch_158">
    <path d="M 385.709299 262.34327 
L 394.724354 262.34327 
L 394.724354 262.34327 
L 385.709299 262.34327 
z
" clip-path="url(#p03c1bdc163)" style="fill: #dc267f; stroke: #000000; stroke-width: 0.25; stroke-linejoin: miter"/>
   </g>
   <g id="patch_159">
    <path d="M 394.724325 262.34327 
L 403.739404 262.34327 
L 403.739404 262.34327 
L 394.724325 262.34327 
z
" clip-path="url(#p03c1bdc163)" style="fill: #dc267f; stroke: #000000; stroke-width: 0.25; stroke-linejoin: miter"/>
   </g>
   <g id="patch_160">
    <path d="M 403.739377 262.34327 
L 412.754435 262.34327 
L 412.754435 262.34327 
L 403.739377 262.34327 
z
" clip-path="url(#p03c1bdc163)" style="fill: #dc267f; stroke: #000000; stroke-width: 0.25; stroke-linejoin: miter"/>
   </g>
   <g id="patch_161">
    <path d="M 412.754435 262.34327 
L 421.7695 262.34327 
L 421.7695 262.34327 
L 412.754435 262.34327 
z
" clip-path="url(#p03c1bdc163)" style="fill: #dc267f; stroke: #000000; stroke-width: 0.25; stroke-linejoin: miter"/>
   </g>
   <g id="patch_162">
    <path d="M 421.769477 262.34327 
L 430.784557 262.34327 
L 430.784557 262.34327 
L 421.769477 262.34327 
z
" clip-path="url(#p03c1bdc163)" style="fill: #dc267f; stroke: #000000; stroke-width: 0.25; stroke-linejoin: miter"/>
   </g>
   <g id="patch_163">
    <path d="M 430.784557 262.34327 
L 439.799597 262.34327 
L 439.799597 262.34327 
L 430.784557 262.34327 
z
" clip-path="url(#p03c1bdc163)" style="fill: #dc267f; stroke: #000000; stroke-width: 0.25; stroke-linejoin: miter"/>
   </g>
   <g id="patch_164">
    <path d="M 439.799617 262.34327 
L 448.814689 262.34327 
L 448.814689 262.34327 
L 439.799617 262.34327 
z
" clip-path="url(#p03c1bdc163)" style="fill: #dc267f; stroke: #000000; stroke-width: 0.25; stroke-linejoin: miter"/>
   </g>
   <g id="patch_165">
    <path d="M 448.814689 262.34327 
L 457.829749 262.34327 
L 457.829749 262.34327 
L 448.814689 262.34327 
z
" clip-path="url(#p03c1bdc163)" style="fill: #dc267f; stroke: #000000; stroke-width: 0.25; stroke-linejoin: miter"/>
   </g>
   <g id="patch_166">
    <path d="M 457.829766 262.34327 
L 466.844808 262.34327 
L 466.844808 262.34327 
L 457.829766 262.34327 
z
" clip-path="url(#p03c1bdc163)" style="fill: #dc267f; stroke: #000000; stroke-width: 0.25; stroke-linejoin: miter"/>
   </g>
   <g id="patch_167">
    <path d="M 466.844824 262.34327 
L 475.859873 262.34327 
L 475.859873 262.34327 
L 466.844824 262.34327 
z
" clip-path="url(#p03c1bdc163)" style="fill: #dc267f; stroke: #000000; stroke-width: 0.25; stroke-linejoin: miter"/>
   </g>
   <g id="patch_168">
    <path d="M 475.859843 262.34327 
L 484.874914 262.34327 
L 484.874914 262.34327 
L 475.859843 262.34327 
z
" clip-path="url(#p03c1bdc163)" style="fill: #dc267f; stroke: #000000; stroke-width: 0.25; stroke-linejoin: miter"/>
   </g>
   <g id="patch_169">
    <path d="M 484.8749 262.34327 
L 493.88997 262.34327 
L 493.88997 262.34327 
L 484.8749 262.34327 
z
" clip-path="url(#p03c1bdc163)" style="fill: #dc267f; stroke: #000000; stroke-width: 0.25; stroke-linejoin: miter"/>
   </g>
   <g id="patch_170">
    <path d="M 493.88997 262.34327 
L 502.905032 262.34327 
L 502.905032 262.34327 
L 493.88997 262.34327 
z
" clip-path="url(#p03c1bdc163)" style="fill: #dc267f; stroke: #000000; stroke-width: 0.25; stroke-linejoin: miter"/>
   </g>
   <g id="patch_171">
    <path d="M 502.905032 262.34327 
L 511.920089 262.34327 
L 511.920089 262.34327 
L 502.905032 262.34327 
z
" clip-path="url(#p03c1bdc163)" style="fill: #dc267f; stroke: #000000; stroke-width: 0.25; stroke-linejoin: miter"/>
   </g>
   <g id="patch_172">
    <path d="M 511.9201 262.34327 
L 520.935165 262.34327 
L 520.935165 262.34327 
L 511.9201 262.34327 
z
" clip-path="url(#p03c1bdc163)" style="fill: #dc267f; stroke: #000000; stroke-width: 0.25; stroke-linejoin: miter"/>
   </g>
   <g id="patch_173">
    <path d="M 520.935155 262.34327 
L 529.950206 262.34327 
L 529.950206 262.34327 
L 520.935155 262.34327 
z
" clip-path="url(#p03c1bdc163)" style="fill: #dc267f; stroke: #000000; stroke-width: 0.25; stroke-linejoin: miter"/>
   </g>
   <g id="patch_174">
    <path d="M 529.950206 262.34327 
L 538.965273 262.34327 
L 538.965273 262.34327 
L 529.950206 262.34327 
z
" clip-path="url(#p03c1bdc163)" style="fill: #dc267f; stroke: #000000; stroke-width: 0.25; stroke-linejoin: miter"/>
   </g>
   <g id="patch_175">
    <path d="M 538.965273 262.34327 
L 547.980328 262.34327 
L 547.980328 262.34327 
L 538.965273 262.34327 
z
" clip-path="url(#p03c1bdc163)" style="fill: #dc267f; stroke: #000000; stroke-width: 0.25; stroke-linejoin: miter"/>
   </g>
   <g id="patch_176">
    <path d="M 547.980328 262.34327 
L 556.99539 262.34327 
L 556.99539 262.34327 
L 547.980328 262.34327 
z
" clip-path="url(#p03c1bdc163)" style="fill: #dc267f; stroke: #000000; stroke-width: 0.25; stroke-linejoin: miter"/>
   </g>
   <g id="patch_177">
    <path d="M 556.995398 262.34327 
L 566.010451 262.34327 
L 566.010451 262.34327 
L 556.995398 262.34327 
z
" clip-path="url(#p03c1bdc163)" style="fill: #dc267f; stroke: #000000; stroke-width: 0.25; stroke-linejoin: miter"/>
   </g>
   <g id="patch_178">
    <path d="M 566.010451 262.34327 
L 575.025507 262.34327 
L 575.025507 262.34327 
L 566.010451 262.34327 
z
" clip-path="url(#p03c1bdc163)" style="fill: #dc267f; stroke: #000000; stroke-width: 0.25; stroke-linejoin: miter"/>
   </g>
   <g id="patch_179">
    <path d="M 575.025514 262.34327 
L 584.040577 262.34327 
L 584.040577 262.34327 
L 575.025514 262.34327 
z
" clip-path="url(#p03c1bdc163)" style="fill: #dc267f; stroke: #000000; stroke-width: 0.25; stroke-linejoin: miter"/>
   </g>
   <g id="patch_180">
    <path d="M 52.152306 262.34327 
L 61.167028 262.34327 
L 61.167028 262.34327 
L 52.152306 262.34327 
z
" clip-path="url(#p03c1bdc163)" style="fill: #fe6100; stroke: #000000; stroke-width: 0.25; stroke-linejoin: miter"/>
   </g>
   <g id="patch_181">
    <path d="M 61.167028 262.34327 
L 70.182052 262.34327 
L 70.182052 262.34327 
L 61.167028 262.34327 
z
" clip-path="url(#p03c1bdc163)" style="fill: #fe6100; stroke: #000000; stroke-width: 0.25; stroke-linejoin: miter"/>
   </g>
   <g id="patch_182">
    <path d="M 70.182431 262.34327 
L 79.197312 262.34327 
L 79.197312 262.328161 
L 70.182431 262.328161 
z
" clip-path="url(#p03c1bdc163)" style="fill: #fe6100; stroke: #000000; stroke-width: 0.25; stroke-linejoin: miter"/>
   </g>
   <g id="patch_183">
    <path d="M 79.197664 262.34327 
L 88.212462 262.34327 
L 88.212462 262.218399 
L 79.197664 262.218399 
z
" clip-path="url(#p03c1bdc163)" style="fill: #fe6100; stroke: #000000; stroke-width: 0.25; stroke-linejoin: miter"/>
   </g>
   <g id="patch_184">
    <path d="M 88.212462 262.34327 
L 97.227386 262.34327 
L 97.227386 262.34327 
L 88.212462 262.34327 
z
" clip-path="url(#p03c1bdc163)" style="fill: #fe6100; stroke: #000000; stroke-width: 0.25; stroke-linejoin: miter"/>
   </g>
   <g id="patch_185">
    <path d="M 97.227386 262.34327 
L 106.2425 262.34327 
L 106.2425 262.34327 
L 97.227386 262.34327 
z
" clip-path="url(#p03c1bdc163)" style="fill: #fe6100; stroke: #000000; stroke-width: 0.25; stroke-linejoin: miter"/>
   </g>
   <g id="patch_186">
    <path d="M 106.242216 262.34327 
L 115.25731 262.34327 
L 115.25731 261.91959 
L 106.242216 261.91959 
z
" clip-path="url(#p03c1bdc163)" style="fill: #fe6100; stroke: #000000; stroke-width: 0.25; stroke-linejoin: miter"/>
   </g>
   <g id="patch_187">
    <path d="M 115.257838 262.34327 
L 124.272724 262.34327 
L 124.272724 260.788687 
L 115.257838 260.788687 
z
" clip-path="url(#p03c1bdc163)" style="fill: #fe6100; stroke: #000000; stroke-width: 0.25; stroke-linejoin: miter"/>
   </g>
   <g id="patch_188">
    <path d="M 124.272724 262.34327 
L 133.28764 262.34327 
L 133.28764 256.228795 
L 124.272724 256.228795 
z
" clip-path="url(#p03c1bdc163)" style="fill: #fe6100; stroke: #000000; stroke-width: 0.25; stroke-linejoin: miter"/>
   </g>
   <g id="patch_189">
    <path d="M 133.287411 262.34327 
L 142.302589 262.34327 
L 142.302589 243.582077 
L 133.287411 243.582077 
z
" clip-path="url(#p03c1bdc163)" style="fill: #fe6100; stroke: #000000; stroke-width: 0.25; stroke-linejoin: miter"/>
   </g>
   <g id="patch_190">
    <path d="M 142.302589 262.34327 
L 151.317635 262.34327 
L 151.317635 216.052676 
L 142.302589 216.052676 
z
" clip-path="url(#p03c1bdc163)" style="fill: #fe6100; stroke: #000000; stroke-width: 0.25; stroke-linejoin: miter"/>
   </g>
   <g id="patch_191">
    <path d="M 151.317635 262.34327 
L 160.332677 262.34327 
L 160.332677 142.583431 
L 151.317635 142.583431 
z
" clip-path="url(#p03c1bdc163)" style="fill: #fe6100; stroke: #000000; stroke-width: 0.25; stroke-linejoin: miter"/>
   </g>
   <g id="patch_192">
    <path d="M 160.332677 262.34327 
L 169.347643 262.34327 
L 169.347643 63.684258 
L 160.332677 63.684258 
z
" clip-path="url(#p03c1bdc163)" style="fill: #fe6100; stroke: #000000; stroke-width: 0.25; stroke-linejoin: miter"/>
   </g>
   <g id="patch_193">
    <path d="M 169.347986 262.34327 
L 178.363085 262.34327 
L 178.363085 46.218887 
L 169.347986 46.218887 
z
" clip-path="url(#p03c1bdc163)" style="fill: #fe6100; stroke: #000000; stroke-width: 0.25; stroke-linejoin: miter"/>
   </g>
   <g id="patch_194">
    <path d="M 178.362925 262.34327 
L 187.378124 262.34327 
L 187.378124 112.975014 
L 178.362925 112.975014 
z
" clip-path="url(#p03c1bdc163)" style="fill: #fe6100; stroke: #000000; stroke-width: 0.25; stroke-linejoin: miter"/>
   </g>
   <g id="patch_195">
    <path d="M 187.377827 262.34327 
L 196.392934 262.34327 
L 196.392934 198.176663 
L 187.377827 198.176663 
z
" clip-path="url(#p03c1bdc163)" style="fill: #fe6100; stroke: #000000; stroke-width: 0.25; stroke-linejoin: miter"/>
   </g>
   <g id="patch_196">
    <path d="M 196.393073 262.34327 
L 205.408087 262.34327 
L 205.408087 242.599712 
L 196.393073 242.599712 
z
" clip-path="url(#p03c1bdc163)" style="fill: #fe6100; stroke: #000000; stroke-width: 0.25; stroke-linejoin: miter"/>
   </g>
   <g id="patch_197">
    <path d="M 205.407959 262.34327 
L 214.423125 262.34327 
L 214.423125 257.435012 
L 205.407959 257.435012 
z
" clip-path="url(#p03c1bdc163)" style="fill: #fe6100; stroke: #000000; stroke-width: 0.25; stroke-linejoin: miter"/>
   </g>
   <g id="patch_198">
    <path d="M 214.423125 262.34327 
L 223.438139 262.34327 
L 223.438139 260.232117 
L 214.423125 260.232117 
z
" clip-path="url(#p03c1bdc163)" style="fill: #fe6100; stroke: #000000; stroke-width: 0.25; stroke-linejoin: miter"/>
   </g>
   <g id="patch_199">
    <path d="M 223.43825 262.34327 
L 232.453293 262.34327 
L 232.453293 261.69149 
L 223.43825 261.69149 
z
" clip-path="url(#p03c1bdc163)" style="fill: #fe6100; stroke: #000000; stroke-width: 0.25; stroke-linejoin: miter"/>
   </g>
   <g id="patch_200">
    <path d="M 232.453293 262.34327 
L 241.468304 262.34327 
L 241.468304 262.254612 
L 232.453293 262.254612 
z
" clip-path="url(#p03c1bdc163)" style="fill: #fe6100; stroke: #000000; stroke-width: 0.25; stroke-linejoin: miter"/>
   </g>
   <g id="patch_201">
    <path d="M 241.468304 262.34327 
L 250.483373 262.34327 
L 250.483373 262.273481 
L 241.468304 262.273481 
z
" clip-path="url(#p03c1bdc163)" style="fill: #fe6100; stroke: #000000; stroke-width: 0.25; stroke-linejoin: miter"/>
   </g>
   <g id="patch_202">
    <path d="M 250.483283 262.34327 
L 259.498412 262.34327 
L 259.498412 262.34327 
L 250.483283 262.34327 
z
" clip-path="url(#p03c1bdc163)" style="fill: #fe6100; stroke: #000000; stroke-width: 0.25; stroke-linejoin: miter"/>
   </g>
   <g id="patch_203">
    <path d="M 259.498412 262.34327 
L 268.513477 262.34327 
L 268.513477 262.34327 
L 259.498412 262.34327 
z
" clip-path="url(#p03c1bdc163)" style="fill: #fe6100; stroke: #000000; stroke-width: 0.25; stroke-linejoin: miter"/>
   </g>
   <g id="patch_204">
    <path d="M 268.513477 262.34327 
L 277.528518 262.34327 
L 277.528518 262.203822 
L 268.513477 262.203822 
z
" clip-path="url(#p03c1bdc163)" style="fill: #fe6100; stroke: #000000; stroke-width: 0.25; stroke-linejoin: miter"/>
   </g>
   <g id="patch_205">
    <path d="M 277.528518 262.34327 
L 286.543618 262.34327 
L 286.543618 262.293789 
L 277.528518 262.293789 
z
" clip-path="url(#p03c1bdc163)" style="fill: #fe6100; stroke: #000000; stroke-width: 0.25; stroke-linejoin: miter"/>
   </g>
   <g id="patch_206">
    <path d="M 286.543618 262.34327 
L 295.558682 262.34327 
L 295.558682 262.323063 
L 286.543618 262.323063 
z
" clip-path="url(#p03c1bdc163)" style="fill: #fe6100; stroke: #000000; stroke-width: 0.25; stroke-linejoin: miter"/>
   </g>
   <g id="patch_207">
    <path d="M 295.558682 262.34327 
L 304.573761 262.34327 
L 304.573761 262.34327 
L 295.558682 262.34327 
z
" clip-path="url(#p03c1bdc163)" style="fill: #fe6100; stroke: #000000; stroke-width: 0.25; stroke-linejoin: miter"/>
   </g>
   <g id="patch_208">
    <path d="M 304.573761 262.34327 
L 313.588802 262.34327 
L 313.588802 262.34327 
L 304.573761 262.34327 
z
" clip-path="url(#p03c1bdc163)" style="fill: #fe6100; stroke: #000000; stroke-width: 0.25; stroke-linejoin: miter"/>
   </g>
   <g id="patch_209">
    <path d="M 313.588802 262.34327 
L 322.603883 262.34327 
L 322.603883 262.34327 
L 313.588802 262.34327 
z
" clip-path="url(#p03c1bdc163)" style="fill: #fe6100; stroke: #000000; stroke-width: 0.25; stroke-linejoin: miter"/>
   </g>
   <g id="patch_210">
    <path d="M 322.603883 262.34327 
L 331.618971 262.34327 
L 331.618971 262.34327 
L 322.603883 262.34327 
z
" clip-path="url(#p03c1bdc163)" style="fill: #fe6100; stroke: #000000; stroke-width: 0.25; stroke-linejoin: miter"/>
   </g>
   <g id="patch_211">
    <path d="M 331.618924 262.34327 
L 340.63397 262.34327 
L 340.63397 262.34327 
L 331.618924 262.34327 
z
" clip-path="url(#p03c1bdc163)" style="fill: #fe6100; stroke: #000000; stroke-width: 0.25; stroke-linejoin: miter"/>
   </g>
   <g id="patch_212">
    <path d="M 340.634014 262.34327 
L 349.649074 262.34327 
L 349.649074 262.34327 
L 340.634014 262.34327 
z
" clip-path="url(#p03c1bdc163)" style="fill: #fe6100; stroke: #000000; stroke-width: 0.25; stroke-linejoin: miter"/>
   </g>
   <g id="patch_213">
    <path d="M 349.649033 262.34327 
L 358.664124 262.34327 
L 358.664124 262.34327 
L 349.649033 262.34327 
z
" clip-path="url(#p03c1bdc163)" style="fill: #fe6100; stroke: #000000; stroke-width: 0.25; stroke-linejoin: miter"/>
   </g>
   <g id="patch_214">
    <path d="M 358.664086 262.34327 
L 367.679124 262.34327 
L 367.679124 262.34327 
L 358.664086 262.34327 
z
" clip-path="url(#p03c1bdc163)" style="fill: #fe6100; stroke: #000000; stroke-width: 0.25; stroke-linejoin: miter"/>
   </g>
   <g id="patch_215">
    <path d="M 367.679124 262.34327 
L 376.694213 262.34327 
L 376.694213 262.34327 
L 367.679124 262.34327 
z
" clip-path="url(#p03c1bdc163)" style="fill: #fe6100; stroke: #000000; stroke-width: 0.25; stroke-linejoin: miter"/>
   </g>
   <g id="patch_216">
    <path d="M 376.694213 262.34327 
L 385.709269 262.34327 
L 385.709269 262.34327 
L 376.694213 262.34327 
z
" clip-path="url(#p03c1bdc163)" style="fill: #fe6100; stroke: #000000; stroke-width: 0.25; stroke-linejoin: miter"/>
   </g>
   <g id="patch_217">
    <path d="M 385.709299 262.34327 
L 394.724354 262.34327 
L 394.724354 262.34327 
L 385.709299 262.34327 
z
" clip-path="url(#p03c1bdc163)" style="fill: #fe6100; stroke: #000000; stroke-width: 0.25; stroke-linejoin: miter"/>
   </g>
   <g id="patch_218">
    <path d="M 394.724325 262.34327 
L 403.739404 262.34327 
L 403.739404 262.34327 
L 394.724325 262.34327 
z
" clip-path="url(#p03c1bdc163)" style="fill: #fe6100; stroke: #000000; stroke-width: 0.25; stroke-linejoin: miter"/>
   </g>
   <g id="patch_219">
    <path d="M 403.739377 262.34327 
L 412.754435 262.34327 
L 412.754435 262.34327 
L 403.739377 262.34327 
z
" clip-path="url(#p03c1bdc163)" style="fill: #fe6100; stroke: #000000; stroke-width: 0.25; stroke-linejoin: miter"/>
   </g>
   <g id="patch_220">
    <path d="M 412.754435 262.34327 
L 421.7695 262.34327 
L 421.7695 262.34327 
L 412.754435 262.34327 
z
" clip-path="url(#p03c1bdc163)" style="fill: #fe6100; stroke: #000000; stroke-width: 0.25; stroke-linejoin: miter"/>
   </g>
   <g id="patch_221">
    <path d="M 421.769477 262.34327 
L 430.784557 262.34327 
L 430.784557 262.34327 
L 421.769477 262.34327 
z
" clip-path="url(#p03c1bdc163)" style="fill: #fe6100; stroke: #000000; stroke-width: 0.25; stroke-linejoin: miter"/>
   </g>
   <g id="patch_222">
    <path d="M 430.784557 262.34327 
L 439.799597 262.34327 
L 439.799597 262.34327 
L 430.784557 262.34327 
z
" clip-path="url(#p03c1bdc163)" style="fill: #fe6100; stroke: #000000; stroke-width: 0.25; stroke-linejoin: miter"/>
   </g>
   <g id="patch_223">
    <path d="M 439.799617 262.34327 
L 448.814689 262.34327 
L 448.814689 262.34327 
L 439.799617 262.34327 
z
" clip-path="url(#p03c1bdc163)" style="fill: #fe6100; stroke: #000000; stroke-width: 0.25; stroke-linejoin: miter"/>
   </g>
   <g id="patch_224">
    <path d="M 448.814689 262.34327 
L 457.829749 262.34327 
L 457.829749 262.34327 
L 448.814689 262.34327 
z
" clip-path="url(#p03c1bdc163)" style="fill: #fe6100; stroke: #000000; stroke-width: 0.25; stroke-linejoin: miter"/>
   </g>
   <g id="patch_225">
    <path d="M 457.829766 262.34327 
L 466.844808 262.34327 
L 466.844808 262.34327 
L 457.829766 262.34327 
z
" clip-path="url(#p03c1bdc163)" style="fill: #fe6100; stroke: #000000; stroke-width: 0.25; stroke-linejoin: miter"/>
   </g>
   <g id="patch_226">
    <path d="M 466.844824 262.34327 
L 475.859873 262.34327 
L 475.859873 262.34327 
L 466.844824 262.34327 
z
" clip-path="url(#p03c1bdc163)" style="fill: #fe6100; stroke: #000000; stroke-width: 0.25; stroke-linejoin: miter"/>
   </g>
   <g id="patch_227">
    <path d="M 475.859843 262.34327 
L 484.874914 262.34327 
L 484.874914 262.34327 
L 475.859843 262.34327 
z
" clip-path="url(#p03c1bdc163)" style="fill: #fe6100; stroke: #000000; stroke-width: 0.25; stroke-linejoin: miter"/>
   </g>
   <g id="patch_228">
    <path d="M 484.8749 262.34327 
L 493.88997 262.34327 
L 493.88997 262.34327 
L 484.8749 262.34327 
z
" clip-path="url(#p03c1bdc163)" style="fill: #fe6100; stroke: #000000; stroke-width: 0.25; stroke-linejoin: miter"/>
   </g>
   <g id="patch_229">
    <path d="M 493.88997 262.34327 
L 502.905032 262.34327 
L 502.905032 262.34327 
L 493.88997 262.34327 
z
" clip-path="url(#p03c1bdc163)" style="fill: #fe6100; stroke: #000000; stroke-width: 0.25; stroke-linejoin: miter"/>
   </g>
   <g id="patch_230">
    <path d="M 502.905032 262.34327 
L 511.920089 262.34327 
L 511.920089 262.34327 
L 502.905032 262.34327 
z
" clip-path="url(#p03c1bdc163)" style="fill: #fe6100; stroke: #000000; stroke-width: 0.25; stroke-linejoin: miter"/>
   </g>
   <g id="patch_231">
    <path d="M 511.9201 262.34327 
L 520.935165 262.34327 
L 520.935165 262.34327 
L 511.9201 262.34327 
z
" clip-path="url(#p03c1bdc163)" style="fill: #fe6100; stroke: #000000; stroke-width: 0.25; stroke-linejoin: miter"/>
   </g>
   <g id="patch_232">
    <path d="M 520.935155 262.34327 
L 529.950206 262.34327 
L 529.950206 262.34327 
L 520.935155 262.34327 
z
" clip-path="url(#p03c1bdc163)" style="fill: #fe6100; stroke: #000000; stroke-width: 0.25; stroke-linejoin: miter"/>
   </g>
   <g id="patch_233">
    <path d="M 529.950206 262.34327 
L 538.965273 262.34327 
L 538.965273 262.34327 
L 529.950206 262.34327 
z
" clip-path="url(#p03c1bdc163)" style="fill: #fe6100; stroke: #000000; stroke-width: 0.25; stroke-linejoin: miter"/>
   </g>
   <g id="patch_234">
    <path d="M 538.965273 262.34327 
L 547.980328 262.34327 
L 547.980328 262.34327 
L 538.965273 262.34327 
z
" clip-path="url(#p03c1bdc163)" style="fill: #fe6100; stroke: #000000; stroke-width: 0.25; stroke-linejoin: miter"/>
   </g>
   <g id="patch_235">
    <path d="M 547.980328 262.34327 
L 556.99539 262.34327 
L 556.99539 262.34327 
L 547.980328 262.34327 
z
" clip-path="url(#p03c1bdc163)" style="fill: #fe6100; stroke: #000000; stroke-width: 0.25; stroke-linejoin: miter"/>
   </g>
   <g id="patch_236">
    <path d="M 556.995398 262.34327 
L 566.010451 262.34327 
L 566.010451 262.34327 
L 556.995398 262.34327 
z
" clip-path="url(#p03c1bdc163)" style="fill: #fe6100; stroke: #000000; stroke-width: 0.25; stroke-linejoin: miter"/>
   </g>
   <g id="patch_237">
    <path d="M 566.010451 262.34327 
L 575.025507 262.34327 
L 575.025507 262.34327 
L 566.010451 262.34327 
z
" clip-path="url(#p03c1bdc163)" style="fill: #fe6100; stroke: #000000; stroke-width: 0.25; stroke-linejoin: miter"/>
   </g>
   <g id="patch_238">
    <path d="M 575.025514 262.34327 
L 584.040577 262.34327 
L 584.040577 262.34327 
L 575.025514 262.34327 
z
" clip-path="url(#p03c1bdc163)" style="fill: #fe6100; stroke: #000000; stroke-width: 0.25; stroke-linejoin: miter"/>
   </g>
   <g id="matplotlib.axis_1">
    <g id="xtick_1">
     <g id="line2d_1">
      <path d="M 93.918499 262.34327 
L 93.918499 35.412667 
" clip-path="url(#p03c1bdc163)" style="fill: none; stroke: #b0b0b0; stroke-opacity: 0.5; stroke-width: 0.5; stroke-linecap: square"/>
     </g>
     <g id="line2d_2">
      <defs>
       <path id="m0a29b1df43" d="M 0 0 
L 0 -3.5 
" style="stroke: #000000; stroke-width: 0.8"/>
      </defs>
      <g>
       <use xlink:href="#m0a29b1df43" x="93.918499" y="262.34327" style="stroke: #000000; stroke-width: 0.8"/>
      </g>
     </g>
     <g id="text_1">
      <!-- 200 nm -->
      <g transform="translate(74.746624 273.441707) scale(0.1 -0.1)">
       <defs>
        <path id="DejaVuSans-32" d="M 1228 531 
L 3431 531 
L 3431 0 
L 469 0 
L 469 531 
Q 828 903 1448 1529 
Q 2069 2156 2228 2338 
Q 2531 2678 2651 2914 
Q 2772 3150 2772 3378 
Q 2772 3750 2511 3984 
Q 2250 4219 1831 4219 
Q 1534 4219 1204 4116 
Q 875 4013 500 3803 
L 500 4441 
Q 881 4594 1212 4672 
Q 1544 4750 1819 4750 
Q 2544 4750 2975 4387 
Q 3406 4025 3406 3419 
Q 3406 3131 3298 2873 
Q 3191 2616 2906 2266 
Q 2828 2175 2409 1742 
Q 1991 1309 1228 531 
z
" transform="scale(0.015625)"/>
        <path id="DejaVuSans-30" d="M 2034 4250 
Q 1547 4250 1301 3770 
Q 1056 3291 1056 2328 
Q 1056 1369 1301 889 
Q 1547 409 2034 409 
Q 2525 409 2770 889 
Q 3016 1369 3016 2328 
Q 3016 3291 2770 3770 
Q 2525 4250 2034 4250 
z
M 2034 4750 
Q 2819 4750 3233 4129 
Q 3647 3509 3647 2328 
Q 3647 1150 3233 529 
Q 2819 -91 2034 -91 
Q 1250 -91 836 529 
Q 422 1150 422 2328 
Q 422 3509 836 4129 
Q 1250 4750 2034 4750 
z
" transform="scale(0.015625)"/>
        <path id="DejaVuSans-20" transform="scale(0.015625)"/>
        <path id="DejaVuSans-6e" d="M 3513 2113 
L 3513 0 
L 2938 0 
L 2938 2094 
Q 2938 2591 2744 2837 
Q 2550 3084 2163 3084 
Q 1697 3084 1428 2787 
Q 1159 2491 1159 1978 
L 1159 0 
L 581 0 
L 581 3500 
L 1159 3500 
L 1159 2956 
Q 1366 3272 1645 3428 
Q 1925 3584 2291 3584 
Q 2894 3584 3203 3211 
Q 3513 2838 3513 2113 
z
" transform="scale(0.015625)"/>
        <path id="DejaVuSans-6d" d="M 3328 2828 
Q 3544 3216 3844 3400 
Q 4144 3584 4550 3584 
Q 5097 3584 5394 3201 
Q 5691 2819 5691 2113 
L 5691 0 
L 5113 0 
L 5113 2094 
Q 5113 2597 4934 2840 
Q 4756 3084 4391 3084 
Q 3944 3084 3684 2787 
Q 3425 2491 3425 1978 
L 3425 0 
L 2847 0 
L 2847 2094 
Q 2847 2600 2669 2842 
Q 2491 3084 2119 3084 
Q 1678 3084 1418 2786 
Q 1159 2488 1159 1978 
L 1159 0 
L 581 0 
L 581 3500 
L 1159 3500 
L 1159 2956 
Q 1356 3278 1631 3431 
Q 1906 3584 2284 3584 
Q 2666 3584 2933 3390 
Q 3200 3197 3328 2828 
z
" transform="scale(0.015625)"/>
       </defs>
       <use xlink:href="#DejaVuSans-32"/>
       <use xlink:href="#DejaVuSans-30" transform="translate(63.623047 0)"/>
       <use xlink:href="#DejaVuSans-30" transform="translate(127.246094 0)"/>
       <use xlink:href="#DejaVuSans-20" transform="translate(190.869141 0)"/>
       <use xlink:href="#DejaVuSans-6e" transform="translate(222.65625 0)"/>
       <use xlink:href="#DejaVuSans-6d" transform="translate(286.035156 0)"/>
      </g>
     </g>
    </g>
    <g id="xtick_2">
     <g id="line2d_3">
      <path d="M 208.716982 262.34327 
L 208.716982 35.412667 
" clip-path="url(#p03c1bdc163)" style="fill: none; stroke: #b0b0b0; stroke-opacity: 0.5; stroke-width: 0.5; stroke-linecap: square"/>
     </g>
     <g id="line2d_4">
      <g>
       <use xlink:href="#m0a29b1df43" x="208.716982" y="262.34327" style="stroke: #000000; stroke-width: 0.8"/>
      </g>
     </g>
     <g id="text_2">
      <!-- 500 nm -->
      <g transform="translate(189.545107 273.441707) scale(0.1 -0.1)">
       <defs>
        <path id="DejaVuSans-35" d="M 691 4666 
L 3169 4666 
L 3169 4134 
L 1269 4134 
L 1269 2991 
Q 1406 3038 1543 3061 
Q 1681 3084 1819 3084 
Q 2600 3084 3056 2656 
Q 3513 2228 3513 1497 
Q 3513 744 3044 326 
Q 2575 -91 1722 -91 
Q 1428 -91 1123 -41 
Q 819 9 494 109 
L 494 744 
Q 775 591 1075 516 
Q 1375 441 1709 441 
Q 2250 441 2565 725 
Q 2881 1009 2881 1497 
Q 2881 1984 2565 2268 
Q 2250 2553 1709 2553 
Q 1456 2553 1204 2497 
Q 953 2441 691 2322 
L 691 4666 
z
" transform="scale(0.015625)"/>
       </defs>
       <use xlink:href="#DejaVuSans-35"/>
       <use xlink:href="#DejaVuSans-30" transform="translate(63.623047 0)"/>
       <use xlink:href="#DejaVuSans-30" transform="translate(127.246094 0)"/>
       <use xlink:href="#DejaVuSans-20" transform="translate(190.869141 0)"/>
       <use xlink:href="#DejaVuSans-6e" transform="translate(222.65625 0)"/>
       <use xlink:href="#DejaVuSans-6d" transform="translate(286.035156 0)"/>
      </g>
     </g>
    </g>
    <g id="xtick_3">
     <g id="line2d_5">
      <path d="M 295.558682 262.34327 
L 295.558682 35.412667 
" clip-path="url(#p03c1bdc163)" style="fill: none; stroke: #b0b0b0; stroke-opacity: 0.5; stroke-width: 0.5; stroke-linecap: square"/>
     </g>
     <g id="line2d_6">
      <g>
       <use xlink:href="#m0a29b1df43" x="295.558682" y="262.34327" style="stroke: #000000; stroke-width: 0.8"/>
      </g>
     </g>
     <g id="text_3">
      <!-- 1 µm -->
      <g transform="translate(282.736807 273.441707) scale(0.1 -0.1)">
       <defs>
        <path id="DejaVuSans-31" d="M 794 531 
L 1825 531 
L 1825 4091 
L 703 3866 
L 703 4441 
L 1819 4666 
L 2450 4666 
L 2450 531 
L 3481 531 
L 3481 0 
L 794 0 
L 794 531 
z
" transform="scale(0.015625)"/>
        <path id="DejaVuSans-b5" d="M 544 -1331 
L 544 3500 
L 1119 3500 
L 1119 1325 
Q 1119 872 1334 640 
Q 1550 409 1972 409 
Q 2434 409 2667 671 
Q 2900 934 2900 1459 
L 2900 3500 
L 3475 3500 
L 3475 806 
Q 3475 619 3529 530 
Q 3584 441 3700 441 
Q 3728 441 3778 458 
Q 3828 475 3916 513 
L 3916 50 
Q 3788 -22 3673 -56 
Q 3559 -91 3450 -91 
Q 3234 -91 3106 31 
Q 2978 153 2931 403 
Q 2775 156 2548 32 
Q 2322 -91 2016 -91 
Q 1697 -91 1473 31 
Q 1250 153 1119 397 
L 1119 -1331 
L 544 -1331 
z
" transform="scale(0.015625)"/>
       </defs>
       <use xlink:href="#DejaVuSans-31"/>
       <use xlink:href="#DejaVuSans-20" transform="translate(63.623047 0)"/>
       <use xlink:href="#DejaVuSans-b5" transform="translate(95.410156 0)"/>
       <use xlink:href="#DejaVuSans-6d" transform="translate(159.033203 0)"/>
      </g>
     </g>
    </g>
    <g id="xtick_4">
     <g id="line2d_7">
      <path d="M 382.400382 262.34327 
L 382.400382 35.412667 
" clip-path="url(#p03c1bdc163)" style="fill: none; stroke: #b0b0b0; stroke-opacity: 0.5; stroke-width: 0.5; stroke-linecap: square"/>
     </g>
     <g id="line2d_8">
      <g>
       <use xlink:href="#m0a29b1df43" x="382.400382" y="262.34327" style="stroke: #000000; stroke-width: 0.8"/>
      </g>
     </g>
     <g id="text_4">
      <!-- 2 µm -->
      <g transform="translate(369.578507 273.441707) scale(0.1 -0.1)">
       <use xlink:href="#DejaVuSans-32"/>
       <use xlink:href="#DejaVuSans-20" transform="translate(63.623047 0)"/>
       <use xlink:href="#DejaVuSans-b5" transform="translate(95.410156 0)"/>
       <use xlink:href="#DejaVuSans-6d" transform="translate(159.033203 0)"/>
      </g>
     </g>
    </g>
    <g id="xtick_5">
     <g id="line2d_9">
      <defs>
       <path id="mcc14117d14" d="M 0 0 
L 0 -2 
" style="stroke: #000000; stroke-width: 0.6"/>
      </defs>
      <g>
       <use xlink:href="#mcc14117d14" x="144.717637" y="262.34327" style="stroke: #000000; stroke-width: 0.6"/>
      </g>
     </g>
    </g>
    <g id="xtick_6">
     <g id="line2d_10">
      <g>
       <use xlink:href="#mcc14117d14" x="180.760199" y="262.34327" style="stroke: #000000; stroke-width: 0.6"/>
      </g>
     </g>
    </g>
    <g id="xtick_7">
     <g id="line2d_11">
      <g>
       <use xlink:href="#mcc14117d14" x="231.559337" y="262.34327" style="stroke: #000000; stroke-width: 0.6"/>
      </g>
     </g>
    </g>
    <g id="xtick_8">
     <g id="line2d_12">
      <g>
       <use xlink:href="#mcc14117d14" x="250.872273" y="262.34327" style="stroke: #000000; stroke-width: 0.6"/>
      </g>
     </g>
    </g>
    <g id="xtick_9">
     <g id="line2d_13">
      <g>
       <use xlink:href="#mcc14117d14" x="267.601899" y="262.34327" style="stroke: #000000; stroke-width: 0.6"/>
      </g>
     </g>
    </g>
    <g id="xtick_10">
     <g id="line2d_14">
      <g>
       <use xlink:href="#mcc14117d14" x="282.358475" y="262.34327" style="stroke: #000000; stroke-width: 0.6"/>
      </g>
     </g>
    </g>
    <g id="xtick_11">
     <g id="line2d_15">
      <g>
       <use xlink:href="#mcc14117d14" x="433.19952" y="262.34327" style="stroke: #000000; stroke-width: 0.6"/>
      </g>
     </g>
    </g>
    <g id="text_5">
     <!-- Particle Diameter -->
     <g transform="translate(202.133041 287.119832) scale(0.1 -0.1)">
      <defs>
       <path id="DejaVuSans-50" d="M 1259 4147 
L 1259 2394 
L 2053 2394 
Q 2494 2394 2734 2622 
Q 2975 2850 2975 3272 
Q 2975 3691 2734 3919 
Q 2494 4147 2053 4147 
L 1259 4147 
z
M 628 4666 
L 2053 4666 
Q 2838 4666 3239 4311 
Q 3641 3956 3641 3272 
Q 3641 2581 3239 2228 
Q 2838 1875 2053 1875 
L 1259 1875 
L 1259 0 
L 628 0 
L 628 4666 
z
" transform="scale(0.015625)"/>
       <path id="DejaVuSans-61" d="M 2194 1759 
Q 1497 1759 1228 1600 
Q 959 1441 959 1056 
Q 959 750 1161 570 
Q 1363 391 1709 391 
Q 2188 391 2477 730 
Q 2766 1069 2766 1631 
L 2766 1759 
L 2194 1759 
z
M 3341 1997 
L 3341 0 
L 2766 0 
L 2766 531 
Q 2569 213 2275 61 
Q 1981 -91 1556 -91 
Q 1019 -91 701 211 
Q 384 513 384 1019 
Q 384 1609 779 1909 
Q 1175 2209 1959 2209 
L 2766 2209 
L 2766 2266 
Q 2766 2663 2505 2880 
Q 2244 3097 1772 3097 
Q 1472 3097 1187 3025 
Q 903 2953 641 2809 
L 641 3341 
Q 956 3463 1253 3523 
Q 1550 3584 1831 3584 
Q 2591 3584 2966 3190 
Q 3341 2797 3341 1997 
z
" transform="scale(0.015625)"/>
       <path id="DejaVuSans-72" d="M 2631 2963 
Q 2534 3019 2420 3045 
Q 2306 3072 2169 3072 
Q 1681 3072 1420 2755 
Q 1159 2438 1159 1844 
L 1159 0 
L 581 0 
L 581 3500 
L 1159 3500 
L 1159 2956 
Q 1341 3275 1631 3429 
Q 1922 3584 2338 3584 
Q 2397 3584 2469 3576 
Q 2541 3569 2628 3553 
L 2631 2963 
z
" transform="scale(0.015625)"/>
       <path id="DejaVuSans-74" d="M 1172 4494 
L 1172 3500 
L 2356 3500 
L 2356 3053 
L 1172 3053 
L 1172 1153 
Q 1172 725 1289 603 
Q 1406 481 1766 481 
L 2356 481 
L 2356 0 
L 1766 0 
Q 1100 0 847 248 
Q 594 497 594 1153 
L 594 3053 
L 172 3053 
L 172 3500 
L 594 3500 
L 594 4494 
L 1172 4494 
z
" transform="scale(0.015625)"/>
       <path id="DejaVuSans-69" d="M 603 3500 
L 1178 3500 
L 1178 0 
L 603 0 
L 603 3500 
z
M 603 4863 
L 1178 4863 
L 1178 4134 
L 603 4134 
L 603 4863 
z
" transform="scale(0.015625)"/>
       <path id="DejaVuSans-63" d="M 3122 3366 
L 3122 2828 
Q 2878 2963 2633 3030 
Q 2388 3097 2138 3097 
Q 1578 3097 1268 2742 
Q 959 2388 959 1747 
Q 959 1106 1268 751 
Q 1578 397 2138 397 
Q 2388 397 2633 464 
Q 2878 531 3122 666 
L 3122 134 
Q 2881 22 2623 -34 
Q 2366 -91 2075 -91 
Q 1284 -91 818 406 
Q 353 903 353 1747 
Q 353 2603 823 3093 
Q 1294 3584 2113 3584 
Q 2378 3584 2631 3529 
Q 2884 3475 3122 3366 
z
" transform="scale(0.015625)"/>
       <path id="DejaVuSans-6c" d="M 603 4863 
L 1178 4863 
L 1178 0 
L 603 0 
L 603 4863 
z
" transform="scale(0.015625)"/>
       <path id="DejaVuSans-65" d="M 3597 1894 
L 3597 1613 
L 953 1613 
Q 991 1019 1311 708 
Q 1631 397 2203 397 
Q 2534 397 2845 478 
Q 3156 559 3463 722 
L 3463 178 
Q 3153 47 2828 -22 
Q 2503 -91 2169 -91 
Q 1331 -91 842 396 
Q 353 884 353 1716 
Q 353 2575 817 3079 
Q 1281 3584 2069 3584 
Q 2775 3584 3186 3129 
Q 3597 2675 3597 1894 
z
M 3022 2063 
Q 3016 2534 2758 2815 
Q 2500 3097 2075 3097 
Q 1594 3097 1305 2825 
Q 1016 2553 972 2059 
L 3022 2063 
z
" transform="scale(0.015625)"/>
       <path id="DejaVuSans-44" d="M 1259 4147 
L 1259 519 
L 2022 519 
Q 2988 519 3436 956 
Q 3884 1394 3884 2338 
Q 3884 3275 3436 3711 
Q 2988 4147 2022 4147 
L 1259 4147 
z
M 628 4666 
L 1925 4666 
Q 3281 4666 3915 4102 
Q 4550 3538 4550 2338 
Q 4550 1131 3912 565 
Q 3275 0 1925 0 
L 628 0 
L 628 4666 
z
" transform="scale(0.015625)"/>
      </defs>
      <use xlink:href="#DejaVuSans-50"/>
      <use xlink:href="#DejaVuSans-61" transform="translate(55.802734 0)"/>
      <use xlink:href="#DejaVuSans-72" transform="translate(117.082031 0)"/>
      <use xlink:href="#DejaVuSans-74" transform="translate(158.195312 0)"/>
      <use xlink:href="#DejaVuSans-69" transform="translate(197.404297 0)"/>
      <use xlink:href="#DejaVuSans-63" transform="translate(225.1875 0)"/>
      <use xlink:href="#DejaVuSans-6c" transform="translate(280.167969 0)"/>
      <use xlink:href="#DejaVuSans-65" transform="translate(307.951172 0)"/>
      <use xlink:href="#DejaVuSans-20" transform="translate(369.474609 0)"/>
      <use xlink:href="#DejaVuSans-44" transform="translate(401.261719 0)"/>
      <use xlink:href="#DejaVuSans-69" transform="translate(478.263672 0)"/>
      <use xlink:href="#DejaVuSans-61" transform="translate(506.046875 0)"/>
      <use xlink:href="#DejaVuSans-6d" transform="translate(567.326172 0)"/>
      <use xlink:href="#DejaVuSans-65" transform="translate(664.738281 0)"/>
      <use xlink:href="#DejaVuSans-74" transform="translate(726.261719 0)"/>
      <use xlink:href="#DejaVuSans-65" transform="translate(765.470703 0)"/>
      <use xlink:href="#DejaVuSans-72" transform="translate(826.994141 0)"/>
     </g>
    </g>
   </g>
   <g id="matplotlib.axis_2">
    <g id="ytick_1">
     <g id="line2d_16">
      <path d="M 57.875938 262.34327 
L 433.19952 262.34327 
" clip-path="url(#p03c1bdc163)" style="fill: none; stroke: #b0b0b0; stroke-opacity: 0.5; stroke-width: 0.5; stroke-linecap: square"/>
     </g>
     <g id="line2d_17">
      <defs>
       <path id="m8cbe75be17" d="M 0 0 
L 3.5 0 
" style="stroke: #000000; stroke-width: 0.8"/>
      </defs>
      <g>
       <use xlink:href="#m8cbe75be17" x="57.875938" y="262.34327" style="stroke: #000000; stroke-width: 0.8"/>
      </g>
     </g>
     <g id="text_6">
      <!-- $\mathdefault{0.00}$ -->
      <g transform="translate(32.075938 266.142489) scale(0.1 -0.1)">
       <defs>
        <path id="DejaVuSans-2e" d="M 684 794 
L 1344 794 
L 1344 0 
L 684 0 
L 684 794 
z
" transform="scale(0.015625)"/>
       </defs>
       <use xlink:href="#DejaVuSans-30" transform="translate(0 0.78125)"/>
       <use xlink:href="#DejaVuSans-2e" transform="translate(63.623047 0.78125)"/>
       <use xlink:href="#DejaVuSans-30" transform="translate(95.410156 0.78125)"/>
       <use xlink:href="#DejaVuSans-30" transform="translate(159.033203 0.78125)"/>
      </g>
     </g>
    </g>
    <g id="ytick_2">
     <g id="line2d_18">
      <path d="M 57.875938 233.474742 
L 433.19952 233.474742 
" clip-path="url(#p03c1bdc163)" style="fill: none; stroke: #b0b0b0; stroke-opacity: 0.5; stroke-width: 0.5; stroke-linecap: square"/>
     </g>
     <g id="line2d_19">
      <g>
       <use xlink:href="#m8cbe75be17" x="57.875938" y="233.474742" style="stroke: #000000; stroke-width: 0.8"/>
      </g>
     </g>
     <g id="text_7">
      <!-- $\mathdefault{0.25}$ -->
      <g transform="translate(32.575938 237.273961) scale(0.1 -0.1)">
       <use xlink:href="#DejaVuSans-30" transform="translate(0 0.78125)"/>
       <use xlink:href="#DejaVuSans-2e" transform="translate(63.623047 0.78125)"/>
       <use xlink:href="#DejaVuSans-32" transform="translate(89.910156 0.78125)"/>
       <use xlink:href="#DejaVuSans-35" transform="translate(153.533203 0.78125)"/>
      </g>
     </g>
    </g>
    <g id="ytick_3">
     <g id="line2d_20">
      <path d="M 57.875938 204.606214 
L 433.19952 204.606214 
" clip-path="url(#p03c1bdc163)" style="fill: none; stroke: #b0b0b0; stroke-opacity: 0.5; stroke-width: 0.5; stroke-linecap: square"/>
     </g>
     <g id="line2d_21">
      <g>
       <use xlink:href="#m8cbe75be17" x="57.875938" y="204.606214" style="stroke: #000000; stroke-width: 0.8"/>
      </g>
     </g>
     <g id="text_8">
      <!-- $\mathdefault{0.50}$ -->
      <g transform="translate(32.075938 208.405433) scale(0.1 -0.1)">
       <use xlink:href="#DejaVuSans-30" transform="translate(0 0.78125)"/>
       <use xlink:href="#DejaVuSans-2e" transform="translate(63.623047 0.78125)"/>
       <use xlink:href="#DejaVuSans-35" transform="translate(95.410156 0.78125)"/>
       <use xlink:href="#DejaVuSans-30" transform="translate(159.033203 0.78125)"/>
      </g>
     </g>
    </g>
    <g id="ytick_4">
     <g id="line2d_22">
      <path d="M 57.875938 175.737686 
L 433.19952 175.737686 
" clip-path="url(#p03c1bdc163)" style="fill: none; stroke: #b0b0b0; stroke-opacity: 0.5; stroke-width: 0.5; stroke-linecap: square"/>
     </g>
     <g id="line2d_23">
      <g>
       <use xlink:href="#m8cbe75be17" x="57.875938" y="175.737686" style="stroke: #000000; stroke-width: 0.8"/>
      </g>
     </g>
     <g id="text_9">
      <!-- $\mathdefault{0.75}$ -->
      <g transform="translate(32.875938 179.536904) scale(0.1 -0.1)">
       <defs>
        <path id="DejaVuSans-37" d="M 525 4666 
L 3525 4666 
L 3525 4397 
L 1831 0 
L 1172 0 
L 2766 4134 
L 525 4134 
L 525 4666 
z
" transform="scale(0.015625)"/>
       </defs>
       <use xlink:href="#DejaVuSans-30" transform="translate(0 0.78125)"/>
       <use xlink:href="#DejaVuSans-2e" transform="translate(63.623047 0.78125)"/>
       <use xlink:href="#DejaVuSans-37" transform="translate(87.660156 0.78125)"/>
       <use xlink:href="#DejaVuSans-35" transform="translate(151.283203 0.78125)"/>
      </g>
     </g>
    </g>
    <g id="ytick_5">
     <g id="line2d_24">
      <path d="M 57.875938 146.869158 
L 433.19952 146.869158 
" clip-path="url(#p03c1bdc163)" style="fill: none; stroke: #b0b0b0; stroke-opacity: 0.5; stroke-width: 0.5; stroke-linecap: square"/>
     </g>
     <g id="line2d_25">
      <g>
       <use xlink:href="#m8cbe75be17" x="57.875938" y="146.869158" style="stroke: #000000; stroke-width: 0.8"/>
      </g>
     </g>
     <g id="text_10">
      <!-- $\mathdefault{1.00}$ -->
      <g transform="translate(32.075938 150.668376) scale(0.1 -0.1)">
       <use xlink:href="#DejaVuSans-31" transform="translate(0 0.78125)"/>
       <use xlink:href="#DejaVuSans-2e" transform="translate(63.623047 0.78125)"/>
       <use xlink:href="#DejaVuSans-30" transform="translate(95.410156 0.78125)"/>
       <use xlink:href="#DejaVuSans-30" transform="translate(159.033203 0.78125)"/>
      </g>
     </g>
    </g>
    <g id="ytick_6">
     <g id="line2d_26">
      <path d="M 57.875938 118.00063 
L 433.19952 118.00063 
" clip-path="url(#p03c1bdc163)" style="fill: none; stroke: #b0b0b0; stroke-opacity: 0.5; stroke-width: 0.5; stroke-linecap: square"/>
     </g>
     <g id="line2d_27">
      <g>
       <use xlink:href="#m8cbe75be17" x="57.875938" y="118.00063" style="stroke: #000000; stroke-width: 0.8"/>
      </g>
     </g>
     <g id="text_11">
      <!-- $\mathdefault{1.25}$ -->
      <g transform="translate(32.575938 121.799848) scale(0.1 -0.1)">
       <use xlink:href="#DejaVuSans-31" transform="translate(0 0.78125)"/>
       <use xlink:href="#DejaVuSans-2e" transform="translate(63.623047 0.78125)"/>
       <use xlink:href="#DejaVuSans-32" transform="translate(89.910156 0.78125)"/>
       <use xlink:href="#DejaVuSans-35" transform="translate(153.533203 0.78125)"/>
      </g>
     </g>
    </g>
    <g id="ytick_7">
     <g id="line2d_28">
      <path d="M 57.875938 89.132101 
L 433.19952 89.132101 
" clip-path="url(#p03c1bdc163)" style="fill: none; stroke: #b0b0b0; stroke-opacity: 0.5; stroke-width: 0.5; stroke-linecap: square"/>
     </g>
     <g id="line2d_29">
      <g>
       <use xlink:href="#m8cbe75be17" x="57.875938" y="89.132101" style="stroke: #000000; stroke-width: 0.8"/>
      </g>
     </g>
     <g id="text_12">
      <!-- $\mathdefault{1.50}$ -->
      <g transform="translate(32.075938 92.93132) scale(0.1 -0.1)">
       <use xlink:href="#DejaVuSans-31" transform="translate(0 0.78125)"/>
       <use xlink:href="#DejaVuSans-2e" transform="translate(63.623047 0.78125)"/>
       <use xlink:href="#DejaVuSans-35" transform="translate(95.410156 0.78125)"/>
       <use xlink:href="#DejaVuSans-30" transform="translate(159.033203 0.78125)"/>
      </g>
     </g>
    </g>
    <g id="ytick_8">
     <g id="line2d_30">
      <path d="M 57.875938 60.263573 
L 433.19952 60.263573 
" clip-path="url(#p03c1bdc163)" style="fill: none; stroke: #b0b0b0; stroke-opacity: 0.5; stroke-width: 0.5; stroke-linecap: square"/>
     </g>
     <g id="line2d_31">
      <g>
       <use xlink:href="#m8cbe75be17" x="57.875938" y="60.263573" style="stroke: #000000; stroke-width: 0.8"/>
      </g>
     </g>
     <g id="text_13">
      <!-- $\mathdefault{1.75}$ -->
      <g transform="translate(32.875938 64.062792) scale(0.1 -0.1)">
       <use xlink:href="#DejaVuSans-31" transform="translate(0 0.09375)"/>
       <use xlink:href="#DejaVuSans-2e" transform="translate(63.623047 0.09375)"/>
       <use xlink:href="#DejaVuSans-37" transform="translate(87.660156 0.09375)"/>
       <use xlink:href="#DejaVuSans-35" transform="translate(151.283203 0.09375)"/>
      </g>
     </g>
    </g>
    <g id="text_14">
     <!-- Number Concentration -->
     <g transform="translate(14.798438 205.924062) rotate(-90) scale(0.1 -0.1)">
      <defs>
       <path id="DejaVuSans-4e" d="M 628 4666 
L 1478 4666 
L 3547 763 
L 3547 4666 
L 4159 4666 
L 4159 0 
L 3309 0 
L 1241 3903 
L 1241 0 
L 628 0 
L 628 4666 
z
" transform="scale(0.015625)"/>
       <path id="DejaVuSans-75" d="M 544 1381 
L 544 3500 
L 1119 3500 
L 1119 1403 
Q 1119 906 1312 657 
Q 1506 409 1894 409 
Q 2359 409 2629 706 
Q 2900 1003 2900 1516 
L 2900 3500 
L 3475 3500 
L 3475 0 
L 2900 0 
L 2900 538 
Q 2691 219 2414 64 
Q 2138 -91 1772 -91 
Q 1169 -91 856 284 
Q 544 659 544 1381 
z
M 1991 3584 
L 1991 3584 
z
" transform="scale(0.015625)"/>
       <path id="DejaVuSans-62" d="M 3116 1747 
Q 3116 2381 2855 2742 
Q 2594 3103 2138 3103 
Q 1681 3103 1420 2742 
Q 1159 2381 1159 1747 
Q 1159 1113 1420 752 
Q 1681 391 2138 391 
Q 2594 391 2855 752 
Q 3116 1113 3116 1747 
z
M 1159 2969 
Q 1341 3281 1617 3432 
Q 1894 3584 2278 3584 
Q 2916 3584 3314 3078 
Q 3713 2572 3713 1747 
Q 3713 922 3314 415 
Q 2916 -91 2278 -91 
Q 1894 -91 1617 61 
Q 1341 213 1159 525 
L 1159 0 
L 581 0 
L 581 4863 
L 1159 4863 
L 1159 2969 
z
" transform="scale(0.015625)"/>
       <path id="DejaVuSans-43" d="M 4122 4306 
L 4122 3641 
Q 3803 3938 3442 4084 
Q 3081 4231 2675 4231 
Q 1875 4231 1450 3742 
Q 1025 3253 1025 2328 
Q 1025 1406 1450 917 
Q 1875 428 2675 428 
Q 3081 428 3442 575 
Q 3803 722 4122 1019 
L 4122 359 
Q 3791 134 3420 21 
Q 3050 -91 2638 -91 
Q 1578 -91 968 557 
Q 359 1206 359 2328 
Q 359 3453 968 4101 
Q 1578 4750 2638 4750 
Q 3056 4750 3426 4639 
Q 3797 4528 4122 4306 
z
" transform="scale(0.015625)"/>
       <path id="DejaVuSans-6f" d="M 1959 3097 
Q 1497 3097 1228 2736 
Q 959 2375 959 1747 
Q 959 1119 1226 758 
Q 1494 397 1959 397 
Q 2419 397 2687 759 
Q 2956 1122 2956 1747 
Q 2956 2369 2687 2733 
Q 2419 3097 1959 3097 
z
M 1959 3584 
Q 2709 3584 3137 3096 
Q 3566 2609 3566 1747 
Q 3566 888 3137 398 
Q 2709 -91 1959 -91 
Q 1206 -91 779 398 
Q 353 888 353 1747 
Q 353 2609 779 3096 
Q 1206 3584 1959 3584 
z
" transform="scale(0.015625)"/>
      </defs>
      <use xlink:href="#DejaVuSans-4e"/>
      <use xlink:href="#DejaVuSans-75" transform="translate(74.804688 0)"/>
      <use xlink:href="#DejaVuSans-6d" transform="translate(138.183594 0)"/>
      <use xlink:href="#DejaVuSans-62" transform="translate(235.595703 0)"/>
      <use xlink:href="#DejaVuSans-65" transform="translate(299.072266 0)"/>
      <use xlink:href="#DejaVuSans-72" transform="translate(360.595703 0)"/>
      <use xlink:href="#DejaVuSans-20" transform="translate(401.708984 0)"/>
      <use xlink:href="#DejaVuSans-43" transform="translate(433.496094 0)"/>
      <use xlink:href="#DejaVuSans-6f" transform="translate(503.320312 0)"/>
      <use xlink:href="#DejaVuSans-6e" transform="translate(564.501953 0)"/>
      <use xlink:href="#DejaVuSans-63" transform="translate(627.880859 0)"/>
      <use xlink:href="#DejaVuSans-65" transform="translate(682.861328 0)"/>
      <use xlink:href="#DejaVuSans-6e" transform="translate(744.384766 0)"/>
      <use xlink:href="#DejaVuSans-74" transform="translate(807.763672 0)"/>
      <use xlink:href="#DejaVuSans-72" transform="translate(846.972656 0)"/>
      <use xlink:href="#DejaVuSans-61" transform="translate(888.085938 0)"/>
      <use xlink:href="#DejaVuSans-74" transform="translate(949.365234 0)"/>
      <use xlink:href="#DejaVuSans-69" transform="translate(988.574219 0)"/>
      <use xlink:href="#DejaVuSans-6f" transform="translate(1016.357422 0)"/>
      <use xlink:href="#DejaVuSans-6e" transform="translate(1077.539062 0)"/>
     </g>
     <!-- ΔN, in cm⁻³ -->
     <g transform="translate(25.99625 177.627187) rotate(-90) scale(0.1 -0.1)">
      <defs>
       <path id="DejaVuSans-394" d="M 2188 4044 
L 906 525 
L 3472 525 
L 2188 4044 
z
M 50 0 
L 1831 4666 
L 2547 4666 
L 4325 0 
L 50 0 
z
" transform="scale(0.015625)"/>
       <path id="DejaVuSans-2c" d="M 750 794 
L 1409 794 
L 1409 256 
L 897 -744 
L 494 -744 
L 750 256 
L 750 794 
z
" transform="scale(0.015625)"/>
       <path id="DejaVuSans-207b" d="M 428 3359 
L 2950 3359 
L 2950 3063 
L 428 3063 
L 428 3359 
z
" transform="scale(0.015625)"/>
       <path id="DejaVuSans-b3" d="M 1638 3500 
Q 1925 3444 2083 3273 
Q 2241 3103 2241 2847 
Q 2241 2459 1944 2250 
Q 1647 2041 1094 2041 
Q 916 2041 720 2073 
Q 525 2106 306 2169 
L 306 2547 
Q 469 2463 655 2422 
Q 841 2381 1050 2381 
Q 1391 2381 1578 2504 
Q 1766 2628 1766 2847 
Q 1766 3078 1592 3197 
Q 1419 3316 1081 3316 
L 813 3316 
L 813 3653 
L 1106 3653 
Q 1400 3653 1551 3751 
Q 1703 3850 1703 4038 
Q 1703 4219 1547 4314 
Q 1391 4409 1094 4409 
Q 969 4409 809 4381 
Q 650 4353 397 4281 
L 397 4641 
Q 625 4694 825 4722 
Q 1025 4750 1197 4750 
Q 1647 4750 1911 4565 
Q 2175 4381 2175 4072 
Q 2175 3856 2034 3706 
Q 1894 3556 1638 3500 
z
" transform="scale(0.015625)"/>
      </defs>
      <use xlink:href="#DejaVuSans-394"/>
      <use xlink:href="#DejaVuSans-4e" transform="translate(68.408203 0)"/>
      <use xlink:href="#DejaVuSans-2c" transform="translate(143.212891 0)"/>
      <use xlink:href="#DejaVuSans-20" transform="translate(175 0)"/>
      <use xlink:href="#DejaVuSans-69" transform="translate(206.787109 0)"/>
      <use xlink:href="#DejaVuSans-6e" transform="translate(234.570312 0)"/>
      <use xlink:href="#DejaVuSans-20" transform="translate(297.949219 0)"/>
      <use xlink:href="#DejaVuSans-63" transform="translate(329.736328 0)"/>
      <use xlink:href="#DejaVuSans-6d" transform="translate(384.716797 0)"/>
      <use xlink:href="#DejaVuSans-207b" transform="translate(482.128906 0)"/>
      <use xlink:href="#DejaVuSans-b3" transform="translate(534.912109 0)"/>
     </g>
    </g>
    <g id="text_15">
     <!-- $\times\mathdefault{10^{2}}\mathdefault{}$ -->
     <g transform="translate(57.875938 32.412667) scale(0.1 -0.1)">
      <defs>
       <path id="DejaVuSans-d7" d="M 4488 3438 
L 3059 2003 
L 4488 575 
L 4116 197 
L 2681 1631 
L 1247 197 
L 878 575 
L 2303 2003 
L 878 3438 
L 1247 3816 
L 2681 2381 
L 4116 3816 
L 4488 3438 
z
" transform="scale(0.015625)"/>
      </defs>
      <use xlink:href="#DejaVuSans-d7" transform="translate(0 0.765625)"/>
      <use xlink:href="#DejaVuSans-31" transform="translate(83.789062 0.765625)"/>
      <use xlink:href="#DejaVuSans-30" transform="translate(147.412109 0.765625)"/>
      <use xlink:href="#DejaVuSans-32" transform="translate(211.992188 39.046875) scale(0.7)"/>
     </g>
    </g>
   </g>
   <g id="patch_239">
    <path d="M 57.875938 262.34327 
L 57.875938 35.412667 
" style="fill: none; stroke: #000000; stroke-width: 0.8; stroke-linejoin: miter; stroke-linecap: square"/>
   </g>
   <g id="patch_240">
    <path d="M 433.19952 262.34327 
L 433.19952 35.412667 
" style="fill: none; stroke: #000000; stroke-width: 0.8; stroke-linejoin: miter; stroke-linecap: square"/>
   </g>
   <g id="patch_241">
    <path d="M 57.875937 262.34327 
L 433.19952 262.34327 
" style="fill: none; stroke: #000000; stroke-width: 0.8; stroke-linejoin: miter; stroke-linecap: square"/>
   </g>
   <g id="patch_242">
    <path d="M 57.875937 35.412667 
L 433.19952 35.412667 
" style="fill: none; stroke: #000000; stroke-width: 0.8; stroke-linejoin: miter; stroke-linecap: square"/>
   </g>
   <g id="legend_1">
    <g id="patch_243">
     <path d="M 362.346395 207.229207 
L 382.346395 207.229207 
L 382.346395 200.229207 
L 362.346395 200.229207 
z
" style="fill: #648fff; stroke: #000000; stroke-width: 0.25; stroke-linejoin: miter"/>
    </g>
    <g id="text_16">
     <!-- Scan 1 -->
     <g transform="translate(390.346395 207.229207) scale(0.1 -0.1)">
      <defs>
       <path id="DejaVuSans-53" d="M 3425 4513 
L 3425 3897 
Q 3066 4069 2747 4153 
Q 2428 4238 2131 4238 
Q 1616 4238 1336 4038 
Q 1056 3838 1056 3469 
Q 1056 3159 1242 3001 
Q 1428 2844 1947 2747 
L 2328 2669 
Q 3034 2534 3370 2195 
Q 3706 1856 3706 1288 
Q 3706 609 3251 259 
Q 2797 -91 1919 -91 
Q 1588 -91 1214 -16 
Q 841 59 441 206 
L 441 856 
Q 825 641 1194 531 
Q 1563 422 1919 422 
Q 2459 422 2753 634 
Q 3047 847 3047 1241 
Q 3047 1584 2836 1778 
Q 2625 1972 2144 2069 
L 1759 2144 
Q 1053 2284 737 2584 
Q 422 2884 422 3419 
Q 422 4038 858 4394 
Q 1294 4750 2059 4750 
Q 2388 4750 2728 4690 
Q 3069 4631 3425 4513 
z
" transform="scale(0.015625)"/>
      </defs>
      <use xlink:href="#DejaVuSans-53"/>
      <use xlink:href="#DejaVuSans-63" transform="translate(63.476562 0)"/>
      <use xlink:href="#DejaVuSans-61" transform="translate(118.457031 0)"/>
      <use xlink:href="#DejaVuSans-6e" transform="translate(179.736328 0)"/>
      <use xlink:href="#DejaVuSans-20" transform="translate(243.115234 0)"/>
      <use xlink:href="#DejaVuSans-31" transform="translate(274.902344 0)"/>
     </g>
    </g>
    <g id="patch_244">
     <path d="M 362.346395 221.907332 
L 382.346395 221.907332 
L 382.346395 214.907332 
L 362.346395 214.907332 
z
" style="fill: #785ef0; stroke: #000000; stroke-width: 0.25; stroke-linejoin: miter"/>
    </g>
    <g id="text_17">
     <!-- Scan 2 -->
     <g transform="translate(390.346395 221.907332) scale(0.1 -0.1)">
      <use xlink:href="#DejaVuSans-53"/>
      <use xlink:href="#DejaVuSans-63" transform="translate(63.476562 0)"/>
      <use xlink:href="#DejaVuSans-61" transform="translate(118.457031 0)"/>
      <use xlink:href="#DejaVuSans-6e" transform="translate(179.736328 0)"/>
      <use xlink:href="#DejaVuSans-20" transform="translate(243.115234 0)"/>
      <use xlink:href="#DejaVuSans-32" transform="translate(274.902344 0)"/>
     </g>
    </g>
    <g id="patch_245">
     <path d="M 362.346395 236.585457 
L 382.346395 236.585457 
L 382.346395 229.585457 
L 362.346395 229.585457 
z
" style="fill: #dc267f; stroke: #000000; stroke-width: 0.25; stroke-linejoin: miter"/>
    </g>
    <g id="text_18">
     <!-- Scan 3 -->
     <g transform="translate(390.346395 236.585457) scale(0.1 -0.1)">
      <defs>
       <path id="DejaVuSans-33" d="M 2597 2516 
Q 3050 2419 3304 2112 
Q 3559 1806 3559 1356 
Q 3559 666 3084 287 
Q 2609 -91 1734 -91 
Q 1441 -91 1130 -33 
Q 819 25 488 141 
L 488 750 
Q 750 597 1062 519 
Q 1375 441 1716 441 
Q 2309 441 2620 675 
Q 2931 909 2931 1356 
Q 2931 1769 2642 2001 
Q 2353 2234 1838 2234 
L 1294 2234 
L 1294 2753 
L 1863 2753 
Q 2328 2753 2575 2939 
Q 2822 3125 2822 3475 
Q 2822 3834 2567 4026 
Q 2313 4219 1838 4219 
Q 1578 4219 1281 4162 
Q 984 4106 628 3988 
L 628 4550 
Q 988 4650 1302 4700 
Q 1616 4750 1894 4750 
Q 2613 4750 3031 4423 
Q 3450 4097 3450 3541 
Q 3450 3153 3228 2886 
Q 3006 2619 2597 2516 
z
" transform="scale(0.015625)"/>
      </defs>
      <use xlink:href="#DejaVuSans-53"/>
      <use xlink:href="#DejaVuSans-63" transform="translate(63.476562 0)"/>
      <use xlink:href="#DejaVuSans-61" transform="translate(118.457031 0)"/>
      <use xlink:href="#DejaVuSans-6e" transform="translate(179.736328 0)"/>
      <use xlink:href="#DejaVuSans-20" transform="translate(243.115234 0)"/>
      <use xlink:href="#DejaVuSans-33" transform="translate(274.902344 0)"/>
     </g>
    </g>
    <g id="patch_246">
     <path d="M 362.346395 251.263582 
L 382.346395 251.263582 
L 382.346395 244.263582 
L 362.346395 244.263582 
z
" style="fill: #fe6100; stroke: #000000; stroke-width: 0.25; stroke-linejoin: miter"/>
    </g>
    <g id="text_19">
     <!-- Scan 4 -->
     <g transform="translate(390.346395 251.263582) scale(0.1 -0.1)">
      <defs>
       <path id="DejaVuSans-34" d="M 2419 4116 
L 825 1625 
L 2419 1625 
L 2419 4116 
z
M 2253 4666 
L 3047 4666 
L 3047 1625 
L 3713 1625 
L 3713 1100 
L 3047 1100 
L 3047 0 
L 2419 0 
L 2419 1100 
L 313 1100 
L 313 1709 
L 2253 4666 
z
" transform="scale(0.015625)"/>
      </defs>
      <use xlink:href="#DejaVuSans-53"/>
      <use xlink:href="#DejaVuSans-63" transform="translate(63.476562 0)"/>
      <use xlink:href="#DejaVuSans-61" transform="translate(118.457031 0)"/>
      <use xlink:href="#DejaVuSans-6e" transform="translate(179.736328 0)"/>
      <use xlink:href="#DejaVuSans-20" transform="translate(243.115234 0)"/>
      <use xlink:href="#DejaVuSans-34" transform="translate(274.902344 0)"/>
     </g>
    </g>
   </g>
  </g>
  <g id="text_20">
   <!-- Histogram of four measurements -->
   <g transform="translate(120.536947 16.318125) scale(0.12 -0.12)">
    <defs>
     <path id="DejaVuSans-48" d="M 628 4666 
L 1259 4666 
L 1259 2753 
L 3553 2753 
L 3553 4666 
L 4184 4666 
L 4184 0 
L 3553 0 
L 3553 2222 
L 1259 2222 
L 1259 0 
L 628 0 
L 628 4666 
z
" transform="scale(0.015625)"/>
     <path id="DejaVuSans-73" d="M 2834 3397 
L 2834 2853 
Q 2591 2978 2328 3040 
Q 2066 3103 1784 3103 
Q 1356 3103 1142 2972 
Q 928 2841 928 2578 
Q 928 2378 1081 2264 
Q 1234 2150 1697 2047 
L 1894 2003 
Q 2506 1872 2764 1633 
Q 3022 1394 3022 966 
Q 3022 478 2636 193 
Q 2250 -91 1575 -91 
Q 1294 -91 989 -36 
Q 684 19 347 128 
L 347 722 
Q 666 556 975 473 
Q 1284 391 1588 391 
Q 1994 391 2212 530 
Q 2431 669 2431 922 
Q 2431 1156 2273 1281 
Q 2116 1406 1581 1522 
L 1381 1569 
Q 847 1681 609 1914 
Q 372 2147 372 2553 
Q 372 3047 722 3315 
Q 1072 3584 1716 3584 
Q 2034 3584 2315 3537 
Q 2597 3491 2834 3397 
z
" transform="scale(0.015625)"/>
     <path id="DejaVuSans-67" d="M 2906 1791 
Q 2906 2416 2648 2759 
Q 2391 3103 1925 3103 
Q 1463 3103 1205 2759 
Q 947 2416 947 1791 
Q 947 1169 1205 825 
Q 1463 481 1925 481 
Q 2391 481 2648 825 
Q 2906 1169 2906 1791 
z
M 3481 434 
Q 3481 -459 3084 -895 
Q 2688 -1331 1869 -1331 
Q 1566 -1331 1297 -1286 
Q 1028 -1241 775 -1147 
L 775 -588 
Q 1028 -725 1275 -790 
Q 1522 -856 1778 -856 
Q 2344 -856 2625 -561 
Q 2906 -266 2906 331 
L 2906 616 
Q 2728 306 2450 153 
Q 2172 0 1784 0 
Q 1141 0 747 490 
Q 353 981 353 1791 
Q 353 2603 747 3093 
Q 1141 3584 1784 3584 
Q 2172 3584 2450 3431 
Q 2728 3278 2906 2969 
L 2906 3500 
L 3481 3500 
L 3481 434 
z
" transform="scale(0.015625)"/>
     <path id="DejaVuSans-66" d="M 2375 4863 
L 2375 4384 
L 1825 4384 
Q 1516 4384 1395 4259 
Q 1275 4134 1275 3809 
L 1275 3500 
L 2222 3500 
L 2222 3053 
L 1275 3053 
L 1275 0 
L 697 0 
L 697 3053 
L 147 3053 
L 147 3500 
L 697 3500 
L 697 3744 
Q 697 4328 969 4595 
Q 1241 4863 1831 4863 
L 2375 4863 
z
" transform="scale(0.015625)"/>
    </defs>
    <use xlink:href="#DejaVuSans-48"/>
    <use xlink:href="#DejaVuSans-69" transform="translate(75.195312 0)"/>
    <use xlink:href="#DejaVuSans-73" transform="translate(102.978516 0)"/>
    <use xlink:href="#DejaVuSans-74" transform="translate(155.078125 0)"/>
    <use xlink:href="#DejaVuSans-6f" transform="translate(194.287109 0)"/>
    <use xlink:href="#DejaVuSans-67" transform="translate(255.46875 0)"/>
    <use xlink:href="#DejaVuSans-72" transform="translate(318.945312 0)"/>
    <use xlink:href="#DejaVuSans-61" transform="translate(360.058594 0)"/>
    <use xlink:href="#DejaVuSans-6d" transform="translate(421.337891 0)"/>
    <use xlink:href="#DejaVuSans-20" transform="translate(518.75 0)"/>
    <use xlink:href="#DejaVuSans-6f" transform="translate(550.537109 0)"/>
    <use xlink:href="#DejaVuSans-66" transform="translate(611.71875 0)"/>
    <use xlink:href="#DejaVuSans-20" transform="translate(646.923828 0)"/>
    <use xlink:href="#DejaVuSans-66" transform="translate(678.710938 0)"/>
    <use xlink:href="#DejaVuSans-6f" transform="translate(713.916016 0)"/>
    <use xlink:href="#DejaVuSans-75" transform="translate(775.097656 0)"/>
    <use xlink:href="#DejaVuSans-72" transform="translate(838.476562 0)"/>
    <use xlink:href="#DejaVuSans-20" transform="translate(879.589844 0)"/>
    <use xlink:href="#DejaVuSans-6d" transform="translate(911.376953 0)"/>
    <use xlink:href="#DejaVuSans-65" transform="translate(1008.789062 0)"/>
    <use xlink:href="#DejaVuSans-61" transform="translate(1070.3125 0)"/>
    <use xlink:href="#DejaVuSans-73" transform="translate(1131.591797 0)"/>
    <use xlink:href="#DejaVuSans-75" transform="translate(1183.691406 0)"/>
    <use xlink:href="#DejaVuSans-72" transform="translate(1247.070312 0)"/>
    <use xlink:href="#DejaVuSans-65" transform="translate(1285.933594 0)"/>
    <use xlink:href="#DejaVuSans-6d" transform="translate(1347.457031 0)"/>
    <use xlink:href="#DejaVuSans-65" transform="translate(1444.869141 0)"/>
    <use xlink:href="#DejaVuSans-6e" transform="translate(1506.392578 0)"/>
    <use xlink:href="#DejaVuSans-74" transform="translate(1569.771484 0)"/>
    <use xlink:href="#DejaVuSans-73" transform="translate(1608.980469 0)"/>
   </g>
  </g>
 </g>
 <defs>
  <clipPath id="p03c1bdc163">
   <rect x="57.875938" y="35.412667" width="375.323582" height="226.930603"/>
  </clipPath>
 </defs>
</svg>
