<?xml version="1.0" encoding="utf-8" standalone="no"?>
<!DOCTYPE svg PUBLIC "-//W3C//DTD SVG 1.1//EN"
  "http://www.w3.org/Graphics/SVG/1.1/DTD/svg11.dtd">
<svg xmlns:xlink="http://www.w3.org/1999/xlink" width="584.39952pt" height="296.39952pt" viewBox="0 0 584.39952 296.39952" xmlns="http://www.w3.org/2000/svg" version="1.1">
 <metadata>
  <rdf:RDF xmlns:dc="http://purl.org/dc/elements/1.1/" xmlns:cc="http://creativecommons.org/ns#" xmlns:rdf="http://www.w3.org/1999/02/22-rdf-syntax-ns#">
   <cc:Work>
    <dc:type rdf:resource="http://purl.org/dc/dcmitype/StillImage"/>
    <dc:date>2026-05-27T21:57:53.155116</dc:date>
    <dc:format>image/svg+xml</dc:format>
    <dc:creator>
     <cc:Agent>
      <dc:title>Matplotlib v3.10.8, https://matplotlib.org/</dc:title>
     </cc:Agent>
    </dc:creator>
   </cc:Work>
  </rdf:RDF>
 </metadata>
 <defs>
  <style type="text/css">*{stroke-linejoin: round; stroke-linecap: butt}</style>
 </defs>
 <g id="figure_1">
  <g id="patch_1">
   <path d="M 0 296.39952 
L 584.39952 296.39952 
L 584.39952 0 
L 0 0 
L 0 296.39952 
z
" style="fill: none"/>
  </g>
  <g id="axes_1">
   <g id="patch_2">
    <path d="M 41.975938 262.34327 
L 577.19952 262.34327 
L 577.19952 35.412667 
L 41.975938 35.412667 
L 41.975938 262.34327 
z
" style="fill: none"/>
   </g>
   <g id="patch_3">
    <path d="M 66.304282 262.34327 
L 74.550874 262.34327 
L 74.550874 262.34327 
L 66.304282 262.34327 
z
" clip-path="url(#p52c5960c65)" style="fill: #648fff"/>
   </g>
   <g id="patch_4">
    <path d="M 74.550874 262.34327 
L 82.797742 262.34327 
L 82.797742 262.34327 
L 74.550874 262.34327 
z
" clip-path="url(#p52c5960c65)" style="fill: #648fff"/>
   </g>
   <g id="patch_5">
    <path d="M 82.798088 262.34327 
L 91.044825 262.34327 
L 91.044825 261.710066 
L 82.798088 261.710066 
z
" clip-path="url(#p52c5960c65)" style="fill: #648fff"/>
   </g>
   <g id="patch_6">
    <path d="M 91.045147 262.34327 
L 99.291808 262.34327 
L 99.291808 259.402346 
L 91.045147 259.402346 
z
" clip-path="url(#p52c5960c65)" style="fill: #648fff"/>
   </g>
   <g id="patch_7">
    <path d="M 99.291808 262.34327 
L 107.538584 262.34327 
L 107.538584 259.684466 
L 99.291808 259.684466 
z
" clip-path="url(#p52c5960c65)" style="fill: #648fff"/>
   </g>
   <g id="patch_8">
    <path d="M 107.538584 262.34327 
L 115.785534 262.34327 
L 115.785534 260.053552 
L 107.538584 260.053552 
z
" clip-path="url(#p52c5960c65)" style="fill: #648fff"/>
   </g>
   <g id="patch_9">
    <path d="M 115.785274 262.34327 
L 124.032206 262.34327 
L 124.032206 257.575716 
L 115.785274 257.575716 
z
" clip-path="url(#p52c5960c65)" style="fill: #648fff"/>
   </g>
   <g id="patch_10">
    <path d="M 124.032689 262.34327 
L 132.279431 262.34327 
L 132.279431 236.781247 
L 124.032689 236.781247 
z
" clip-path="url(#p52c5960c65)" style="fill: #648fff"/>
   </g>
   <g id="patch_11">
    <path d="M 132.279431 262.34327 
L 140.526199 262.34327 
L 140.526199 165.950255 
L 132.279431 165.950255 
z
" clip-path="url(#p52c5960c65)" style="fill: #648fff"/>
   </g>
   <g id="patch_12">
    <path d="M 140.52599 262.34327 
L 148.772999 262.34327 
L 148.772999 59.422519 
L 140.52599 59.422519 
z
" clip-path="url(#p52c5960c65)" style="fill: #648fff"/>
   </g>
   <g id="patch_13">
    <path d="M 148.772999 262.34327 
L 157.019887 262.34327 
L 157.019887 46.218887 
L 148.772999 46.218887 
z
" clip-path="url(#p52c5960c65)" style="fill: #648fff"/>
   </g>
   <g id="patch_14">
    <path d="M 157.019887 262.34327 
L 165.266771 262.34327 
L 165.266771 140.633569 
L 157.019887 140.633569 
z
" clip-path="url(#p52c5960c65)" style="fill: #648fff"/>
   </g>
   <g id="patch_15">
    <path d="M 165.266771 262.34327 
L 173.513586 262.34327 
L 173.513586 229.988226 
L 165.266771 229.988226 
z
" clip-path="url(#p52c5960c65)" style="fill: #648fff"/>
   </g>
   <g id="patch_16">
    <path d="M 173.5139 262.34327 
L 181.760835 262.34327 
L 181.760835 251.089746 
L 173.5139 251.089746 
z
" clip-path="url(#p52c5960c65)" style="fill: #648fff"/>
   </g>
   <g id="patch_17">
    <path d="M 181.760689 262.34327 
L 190.007717 262.34327 
L 190.007717 256.215737 
L 181.760689 256.215737 
z
" clip-path="url(#p52c5960c65)" style="fill: #648fff"/>
   </g>
   <g id="patch_18">
    <path d="M 190.007445 262.34327 
L 198.254389 262.34327 
L 198.254389 259.518682 
L 190.007445 259.518682 
z
" clip-path="url(#p52c5960c65)" style="fill: #648fff"/>
   </g>
   <g id="patch_19">
    <path d="M 198.254516 262.34327 
L 206.501375 262.34327 
L 206.501375 261.598443 
L 198.254516 261.598443 
z
" clip-path="url(#p52c5960c65)" style="fill: #648fff"/>
   </g>
   <g id="patch_20">
    <path d="M 206.501257 262.34327 
L 214.748255 262.34327 
L 214.748255 262.119785 
L 206.501257 262.119785 
z
" clip-path="url(#p52c5960c65)" style="fill: #648fff"/>
   </g>
   <g id="patch_21">
    <path d="M 214.748255 262.34327 
L 222.995114 262.34327 
L 222.995114 262.211668 
L 214.748255 262.211668 
z
" clip-path="url(#p52c5960c65)" style="fill: #648fff"/>
   </g>
   <g id="patch_22">
    <path d="M 222.995216 262.34327 
L 231.242101 262.34327 
L 231.242101 262.275817 
L 222.995216 262.275817 
z
" clip-path="url(#p52c5960c65)" style="fill: #648fff"/>
   </g>
   <g id="patch_23">
    <path d="M 231.242101 262.34327 
L 239.488956 262.34327 
L 239.488956 262.246948 
L 231.242101 262.246948 
z
" clip-path="url(#p52c5960c65)" style="fill: #648fff"/>
   </g>
   <g id="patch_24">
    <path d="M 239.488956 262.34327 
L 247.735865 262.34327 
L 247.735865 262.255434 
L 239.488956 262.255434 
z
" clip-path="url(#p52c5960c65)" style="fill: #648fff"/>
   </g>
   <g id="patch_25">
    <path d="M 247.735783 262.34327 
L 255.982746 262.34327 
L 255.982746 262.234845 
L 247.735783 262.234845 
z
" clip-path="url(#p52c5960c65)" style="fill: #648fff"/>
   </g>
   <g id="patch_26">
    <path d="M 255.982746 262.34327 
L 264.229651 262.34327 
L 264.229651 262.257606 
L 255.982746 262.257606 
z
" clip-path="url(#p52c5960c65)" style="fill: #648fff"/>
   </g>
   <g id="patch_27">
    <path d="M 264.229651 262.34327 
L 272.476535 262.34327 
L 272.476535 262.286583 
L 264.229651 262.286583 
z
" clip-path="url(#p52c5960c65)" style="fill: #648fff"/>
   </g>
   <g id="patch_28">
    <path d="M 272.476535 262.34327 
L 280.723472 262.34327 
L 280.723472 262.270408 
L 272.476535 262.270408 
z
" clip-path="url(#p52c5960c65)" style="fill: #648fff"/>
   </g>
   <g id="patch_29">
    <path d="M 280.723472 262.34327 
L 288.970377 262.34327 
L 288.970377 262.303145 
L 280.723472 262.303145 
z
" clip-path="url(#p52c5960c65)" style="fill: #648fff"/>
   </g>
   <g id="patch_30">
    <path d="M 288.970377 262.34327 
L 297.217295 262.34327 
L 297.217295 262.295584 
L 288.970377 262.295584 
z
" clip-path="url(#p52c5960c65)" style="fill: #648fff"/>
   </g>
   <g id="patch_31">
    <path d="M 297.217295 262.34327 
L 305.464178 262.34327 
L 305.464178 262.307628 
L 297.217295 262.307628 
z
" clip-path="url(#p52c5960c65)" style="fill: #648fff"/>
   </g>
   <g id="patch_32">
    <path d="M 305.464178 262.34327 
L 313.711098 262.34327 
L 313.711098 262.335454 
L 305.464178 262.335454 
z
" clip-path="url(#p52c5960c65)" style="fill: #648fff"/>
   </g>
   <g id="patch_33">
    <path d="M 313.711098 262.34327 
L 321.958024 262.34327 
L 321.958024 262.335458 
L 313.711098 262.335458 
z
" clip-path="url(#p52c5960c65)" style="fill: #648fff"/>
   </g>
   <g id="patch_34">
    <path d="M 321.957981 262.34327 
L 330.204869 262.34327 
L 330.204869 262.34327 
L 321.957981 262.34327 
z
" clip-path="url(#p52c5960c65)" style="fill: #648fff"/>
   </g>
   <g id="patch_35">
    <path d="M 330.204909 262.34327 
L 338.45181 262.34327 
L 338.45181 262.34327 
L 330.204909 262.34327 
z
" clip-path="url(#p52c5960c65)" style="fill: #648fff"/>
   </g>
   <g id="patch_36">
    <path d="M 338.451772 262.34327 
L 346.698702 262.34327 
L 346.698702 262.34327 
L 338.451772 262.34327 
z
" clip-path="url(#p52c5960c65)" style="fill: #648fff"/>
   </g>
   <g id="patch_37">
    <path d="M 346.698667 262.34327 
L 354.945547 262.34327 
L 354.945547 262.34327 
L 346.698667 262.34327 
z
" clip-path="url(#p52c5960c65)" style="fill: #648fff"/>
   </g>
   <g id="patch_38">
    <path d="M 354.945547 262.34327 
L 363.192475 262.34327 
L 363.192475 262.34327 
L 354.945547 262.34327 
z
" clip-path="url(#p52c5960c65)" style="fill: #648fff"/>
   </g>
   <g id="patch_39">
    <path d="M 363.192475 262.34327 
L 371.439371 262.34327 
L 371.439371 262.34327 
L 363.192475 262.34327 
z
" clip-path="url(#p52c5960c65)" style="fill: #648fff"/>
   </g>
   <g id="patch_40">
    <path d="M 371.439399 262.34327 
L 379.686295 262.34327 
L 379.686295 262.34327 
L 371.439399 262.34327 
z
" clip-path="url(#p52c5960c65)" style="fill: #648fff"/>
   </g>
   <g id="patch_41">
    <path d="M 379.686269 262.34327 
L 387.933186 262.34327 
L 387.933186 262.34327 
L 379.686269 262.34327 
z
" clip-path="url(#p52c5960c65)" style="fill: #648fff"/>
   </g>
   <g id="patch_42">
    <path d="M 387.933162 262.34327 
L 396.18006 262.34327 
L 396.18006 262.34327 
L 387.933162 262.34327 
z
" clip-path="url(#p52c5960c65)" style="fill: #648fff"/>
   </g>
   <g id="patch_43">
    <path d="M 396.18006 262.34327 
L 404.426966 262.34327 
L 404.426966 262.34327 
L 396.18006 262.34327 
z
" clip-path="url(#p52c5960c65)" style="fill: #648fff"/>
   </g>
   <g id="patch_44">
    <path d="M 404.426945 262.34327 
L 412.673864 262.34327 
L 412.673864 262.34327 
L 404.426945 262.34327 
z
" clip-path="url(#p52c5960c65)" style="fill: #648fff"/>
   </g>
   <g id="patch_45">
    <path d="M 412.673864 262.34327 
L 420.920746 262.34327 
L 420.920746 262.34327 
L 412.673864 262.34327 
z
" clip-path="url(#p52c5960c65)" style="fill: #648fff"/>
   </g>
   <g id="patch_46">
    <path d="M 420.920765 262.34327 
L 429.167676 262.34327 
L 429.167676 262.34327 
L 420.920765 262.34327 
z
" clip-path="url(#p52c5960c65)" style="fill: #648fff"/>
   </g>
   <g id="patch_47">
    <path d="M 429.167676 262.34327 
L 437.414577 262.34327 
L 437.414577 262.34327 
L 429.167676 262.34327 
z
" clip-path="url(#p52c5960c65)" style="fill: #648fff"/>
   </g>
   <g id="patch_48">
    <path d="M 437.414592 262.34327 
L 445.661476 262.34327 
L 445.661476 262.34327 
L 437.414592 262.34327 
z
" clip-path="url(#p52c5960c65)" style="fill: #648fff"/>
   </g>
   <g id="patch_49">
    <path d="M 445.661491 262.34327 
L 453.908381 262.34327 
L 453.908381 262.34327 
L 445.661491 262.34327 
z
" clip-path="url(#p52c5960c65)" style="fill: #648fff"/>
   </g>
   <g id="patch_50">
    <path d="M 453.908354 262.34327 
L 462.155265 262.34327 
L 462.155265 262.34327 
L 453.908354 262.34327 
z
" clip-path="url(#p52c5960c65)" style="fill: #648fff"/>
   </g>
   <g id="patch_51">
    <path d="M 462.155252 262.34327 
L 470.402162 262.34327 
L 470.402162 262.34327 
L 462.155252 262.34327 
z
" clip-path="url(#p52c5960c65)" style="fill: #648fff"/>
   </g>
   <g id="patch_52">
    <path d="M 470.402162 262.34327 
L 478.649064 262.34327 
L 478.649064 262.34327 
L 470.402162 262.34327 
z
" clip-path="url(#p52c5960c65)" style="fill: #648fff"/>
   </g>
   <g id="patch_53">
    <path d="M 478.649064 262.34327 
L 486.895962 262.34327 
L 486.895962 262.34327 
L 478.649064 262.34327 
z
" clip-path="url(#p52c5960c65)" style="fill: #648fff"/>
   </g>
   <g id="patch_54">
    <path d="M 486.895972 262.34327 
L 495.142878 262.34327 
L 495.142878 262.34327 
L 486.895972 262.34327 
z
" clip-path="url(#p52c5960c65)" style="fill: #648fff"/>
   </g>
   <g id="patch_55">
    <path d="M 495.142869 262.34327 
L 503.389761 262.34327 
L 503.389761 262.34327 
L 495.142869 262.34327 
z
" clip-path="url(#p52c5960c65)" style="fill: #648fff"/>
   </g>
   <g id="patch_56">
    <path d="M 503.389761 262.34327 
L 511.636668 262.34327 
L 511.636668 262.34327 
L 503.389761 262.34327 
z
" clip-path="url(#p52c5960c65)" style="fill: #648fff"/>
   </g>
   <g id="patch_57">
    <path d="M 511.636668 262.34327 
L 519.883564 262.34327 
L 519.883564 262.34327 
L 511.636668 262.34327 
z
" clip-path="url(#p52c5960c65)" style="fill: #648fff"/>
   </g>
   <g id="patch_58">
    <path d="M 519.883564 262.34327 
L 528.130467 262.34327 
L 528.130467 262.34327 
L 519.883564 262.34327 
z
" clip-path="url(#p52c5960c65)" style="fill: #648fff"/>
   </g>
   <g id="patch_59">
    <path d="M 528.130474 262.34327 
L 536.377368 262.34327 
L 536.377368 262.34327 
L 528.130474 262.34327 
z
" clip-path="url(#p52c5960c65)" style="fill: #648fff"/>
   </g>
   <g id="patch_60">
    <path d="M 536.377368 262.34327 
L 544.624265 262.34327 
L 544.624265 262.34327 
L 536.377368 262.34327 
z
" clip-path="url(#p52c5960c65)" style="fill: #648fff"/>
   </g>
   <g id="patch_61">
    <path d="M 544.624272 262.34327 
L 552.871175 262.34327 
L 552.871175 262.34327 
L 544.624272 262.34327 
z
" clip-path="url(#p52c5960c65)" style="fill: #648fff"/>
   </g>
   <g id="matplotlib.axis_1">
    <g id="xtick_1">
     <g id="line2d_1">
      <path d="M 104.511643 262.34327 
L 104.511643 35.412667 
" clip-path="url(#p52c5960c65)" style="fill: none; stroke: #b0b0b0; stroke-opacity: 0.5; stroke-width: 0.5; stroke-linecap: square"/>
     </g>
     <g id="line2d_2">
      <defs>
       <path id="m0d50201dc0" d="M 0 0 
L 0 -3.5 
" style="stroke: #000000; stroke-width: 0.8"/>
      </defs>
      <g>
       <use xlink:href="#m0d50201dc0" x="104.511643" y="262.34327" style="stroke: #000000; stroke-width: 0.8"/>
      </g>
     </g>
     <g id="text_1">
      <!-- 200 nm -->
      <g transform="translate(85.339768 273.441707) scale(0.1 -0.1)">
       <defs>
        <path id="DejaVuSans-32" d="M 1228 531 
L 3431 531 
L 3431 0 
L 469 0 
L 469 531 
Q 828 903 1448 1529 
Q 2069 2156 2228 2338 
Q 2531 2678 2651 2914 
Q 2772 3150 2772 3378 
Q 2772 3750 2511 3984 
Q 2250 4219 1831 4219 
Q 1534 4219 1204 4116 
Q 875 4013 500 3803 
L 500 4441 
Q 881 4594 1212 4672 
Q 1544 4750 1819 4750 
Q 2544 4750 2975 4387 
Q 3406 4025 3406 3419 
Q 3406 3131 3298 2873 
Q 3191 2616 2906 2266 
Q 2828 2175 2409 1742 
Q 1991 1309 1228 531 
z
" transform="scale(0.015625)"/>
        <path id="DejaVuSans-30" d="M 2034 4250 
Q 1547 4250 1301 3770 
Q 1056 3291 1056 2328 
Q 1056 1369 1301 889 
Q 1547 409 2034 409 
Q 2525 409 2770 889 
Q 3016 1369 3016 2328 
Q 3016 3291 2770 3770 
Q 2525 4250 2034 4250 
z
M 2034 4750 
Q 2819 4750 3233 4129 
Q 3647 3509 3647 2328 
Q 3647 1150 3233 529 
Q 2819 -91 2034 -91 
Q 1250 -91 836 529 
Q 422 1150 422 2328 
Q 422 3509 836 4129 
Q 1250 4750 2034 4750 
z
" transform="scale(0.015625)"/>
        <path id="DejaVuSans-20" transform="scale(0.015625)"/>
        <path id="DejaVuSans-6e" d="M 3513 2113 
L 3513 0 
L 2938 0 
L 2938 2094 
Q 2938 2591 2744 2837 
Q 2550 3084 2163 3084 
Q 1697 3084 1428 2787 
Q 1159 2491 1159 1978 
L 1159 0 
L 581 0 
L 581 3500 
L 1159 3500 
L 1159 2956 
Q 1366 3272 1645 3428 
Q 1925 3584 2291 3584 
Q 2894 3584 3203 3211 
Q 3513 2838 3513 2113 
z
" transform="scale(0.015625)"/>
        <path id="DejaVuSans-6d" d="M 3328 2828 
Q 3544 3216 3844 3400 
Q 4144 3584 4550 3584 
Q 5097 3584 5394 3201 
Q 5691 2819 5691 2113 
L 5691 0 
L 5113 0 
L 5113 2094 
Q 5113 2597 4934 2840 
Q 4756 3084 4391 3084 
Q 3944 3084 3684 2787 
Q 3425 2491 3425 1978 
L 3425 0 
L 2847 0 
L 2847 2094 
Q 2847 2600 2669 2842 
Q 2491 3084 2119 3084 
Q 1678 3084 1418 2786 
Q 1159 2488 1159 1978 
L 1159 0 
L 581 0 
L 581 3500 
L 1159 3500 
L 1159 2956 
Q 1356 3278 1631 3431 
Q 1906 3584 2284 3584 
Q 2666 3584 2933 3390 
Q 3200 3197 3328 2828 
z
" transform="scale(0.015625)"/>
       </defs>
       <use xlink:href="#DejaVuSans-32"/>
       <use xlink:href="#DejaVuSans-30" transform="translate(63.623047 0)"/>
       <use xlink:href="#DejaVuSans-30" transform="translate(127.246094 0)"/>
       <use xlink:href="#DejaVuSans-20" transform="translate(190.869141 0)"/>
       <use xlink:href="#DejaVuSans-6e" transform="translate(222.65625 0)"/>
       <use xlink:href="#DejaVuSans-6d" transform="translate(286.035156 0)"/>
      </g>
     </g>
    </g>
    <g id="xtick_2">
     <g id="line2d_3">
      <path d="M 209.528324 262.34327 
L 209.528324 35.412667 
" clip-path="url(#p52c5960c65)" style="fill: none; stroke: #b0b0b0; stroke-opacity: 0.5; stroke-width: 0.5; stroke-linecap: square"/>
     </g>
     <g id="line2d_4">
      <g>
       <use xlink:href="#m0d50201dc0" x="209.528324" y="262.34327" style="stroke: #000000; stroke-width: 0.8"/>
      </g>
     </g>
     <g id="text_2">
      <!-- 500 nm -->
      <g transform="translate(190.356449 273.441707) scale(0.1 -0.1)">
       <defs>
        <path id="DejaVuSans-35" d="M 691 4666 
L 3169 4666 
L 3169 4134 
L 1269 4134 
L 1269 2991 
Q 1406 3038 1543 3061 
Q 1681 3084 1819 3084 
Q 2600 3084 3056 2656 
Q 3513 2228 3513 1497 
Q 3513 744 3044 326 
Q 2575 -91 1722 -91 
Q 1428 -91 1123 -41 
Q 819 9 494 109 
L 494 744 
Q 775 591 1075 516 
Q 1375 441 1709 441 
Q 2250 441 2565 725 
Q 2881 1009 2881 1497 
Q 2881 1984 2565 2268 
Q 2250 2553 1709 2553 
Q 1456 2553 1204 2497 
Q 953 2441 691 2322 
L 691 4666 
z
" transform="scale(0.015625)"/>
       </defs>
       <use xlink:href="#DejaVuSans-35"/>
       <use xlink:href="#DejaVuSans-30" transform="translate(63.623047 0)"/>
       <use xlink:href="#DejaVuSans-30" transform="translate(127.246094 0)"/>
       <use xlink:href="#DejaVuSans-20" transform="translate(190.869141 0)"/>
       <use xlink:href="#DejaVuSans-6e" transform="translate(222.65625 0)"/>
       <use xlink:href="#DejaVuSans-6d" transform="translate(286.035156 0)"/>
      </g>
     </g>
    </g>
    <g id="xtick_3">
     <g id="line2d_5">
      <path d="M 288.970377 262.34327 
L 288.970377 35.412667 
" clip-path="url(#p52c5960c65)" style="fill: none; stroke: #b0b0b0; stroke-opacity: 0.5; stroke-width: 0.5; stroke-linecap: square"/>
     </g>
     <g id="line2d_6">
      <g>
       <use xlink:href="#m0d50201dc0" x="288.970377" y="262.34327" style="stroke: #000000; stroke-width: 0.8"/>
      </g>
     </g>
     <g id="text_3">
      <!-- 1 µm -->
      <g transform="translate(276.148502 273.441707) scale(0.1 -0.1)">
       <defs>
        <path id="DejaVuSans-31" d="M 794 531 
L 1825 531 
L 1825 4091 
L 703 3866 
L 703 4441 
L 1819 4666 
L 2450 4666 
L 2450 531 
L 3481 531 
L 3481 0 
L 794 0 
L 794 531 
z
" transform="scale(0.015625)"/>
        <path id="DejaVuSans-b5" d="M 544 -1331 
L 544 3500 
L 1119 3500 
L 1119 1325 
Q 1119 872 1334 640 
Q 1550 409 1972 409 
Q 2434 409 2667 671 
Q 2900 934 2900 1459 
L 2900 3500 
L 3475 3500 
L 3475 806 
Q 3475 619 3529 530 
Q 3584 441 3700 441 
Q 3728 441 3778 458 
Q 3828 475 3916 513 
L 3916 50 
Q 3788 -22 3673 -56 
Q 3559 -91 3450 -91 
Q 3234 -91 3106 31 
Q 2978 153 2931 403 
Q 2775 156 2548 32 
Q 2322 -91 2016 -91 
Q 1697 -91 1473 31 
Q 1250 153 1119 397 
L 1119 -1331 
L 544 -1331 
z
" transform="scale(0.015625)"/>
       </defs>
       <use xlink:href="#DejaVuSans-31"/>
       <use xlink:href="#DejaVuSans-20" transform="translate(63.623047 0)"/>
       <use xlink:href="#DejaVuSans-b5" transform="translate(95.410156 0)"/>
       <use xlink:href="#DejaVuSans-6d" transform="translate(159.033203 0)"/>
      </g>
     </g>
    </g>
    <g id="xtick_4">
     <g id="line2d_7">
      <path d="M 368.41243 262.34327 
L 368.41243 35.412667 
" clip-path="url(#p52c5960c65)" style="fill: none; stroke: #b0b0b0; stroke-opacity: 0.5; stroke-width: 0.5; stroke-linecap: square"/>
     </g>
     <g id="line2d_8">
      <g>
       <use xlink:href="#m0d50201dc0" x="368.41243" y="262.34327" style="stroke: #000000; stroke-width: 0.8"/>
      </g>
     </g>
     <g id="text_4">
      <!-- 2 µm -->
      <g transform="translate(355.590555 273.441707) scale(0.1 -0.1)">
       <use xlink:href="#DejaVuSans-32"/>
       <use xlink:href="#DejaVuSans-20" transform="translate(63.623047 0)"/>
       <use xlink:href="#DejaVuSans-b5" transform="translate(95.410156 0)"/>
       <use xlink:href="#DejaVuSans-6d" transform="translate(159.033203 0)"/>
      </g>
     </g>
    </g>
    <g id="xtick_5">
     <g id="line2d_9">
      <path d="M 473.429111 262.34327 
L 473.429111 35.412667 
" clip-path="url(#p52c5960c65)" style="fill: none; stroke: #b0b0b0; stroke-opacity: 0.5; stroke-width: 0.5; stroke-linecap: square"/>
     </g>
     <g id="line2d_10">
      <g>
       <use xlink:href="#m0d50201dc0" x="473.429111" y="262.34327" style="stroke: #000000; stroke-width: 0.8"/>
      </g>
     </g>
     <g id="text_5">
      <!-- 5 µm -->
      <g transform="translate(460.607236 273.441707) scale(0.1 -0.1)">
       <use xlink:href="#DejaVuSans-35"/>
       <use xlink:href="#DejaVuSans-20" transform="translate(63.623047 0)"/>
       <use xlink:href="#DejaVuSans-b5" transform="translate(95.410156 0)"/>
       <use xlink:href="#DejaVuSans-6d" transform="translate(159.033203 0)"/>
      </g>
     </g>
    </g>
    <g id="xtick_6">
     <g id="line2d_11">
      <path d="M 552.871164 262.34327 
L 552.871164 35.412667 
" clip-path="url(#p52c5960c65)" style="fill: none; stroke: #b0b0b0; stroke-opacity: 0.5; stroke-width: 0.5; stroke-linecap: square"/>
     </g>
     <g id="line2d_12">
      <g>
       <use xlink:href="#m0d50201dc0" x="552.871164" y="262.34327" style="stroke: #000000; stroke-width: 0.8"/>
      </g>
     </g>
     <g id="text_6">
      <!-- 10 µm -->
      <g transform="translate(536.868039 273.441707) scale(0.1 -0.1)">
       <use xlink:href="#DejaVuSans-31"/>
       <use xlink:href="#DejaVuSans-30" transform="translate(63.623047 0)"/>
       <use xlink:href="#DejaVuSans-20" transform="translate(127.246094 0)"/>
       <use xlink:href="#DejaVuSans-b5" transform="translate(159.033203 0)"/>
       <use xlink:href="#DejaVuSans-6d" transform="translate(222.65625 0)"/>
      </g>
     </g>
    </g>
    <g id="xtick_7">
     <g id="line2d_13">
      <defs>
       <path id="mc29b9a8347" d="M 0 0 
L 0 -2 
" style="stroke: #000000; stroke-width: 0.6"/>
      </defs>
      <g>
       <use xlink:href="#mc29b9a8347" x="150.982264" y="262.34327" style="stroke: #000000; stroke-width: 0.6"/>
      </g>
     </g>
    </g>
    <g id="xtick_8">
     <g id="line2d_14">
      <g>
       <use xlink:href="#mc29b9a8347" x="183.953695" y="262.34327" style="stroke: #000000; stroke-width: 0.6"/>
      </g>
     </g>
    </g>
    <g id="xtick_9">
     <g id="line2d_15">
      <g>
       <use xlink:href="#mc29b9a8347" x="230.424317" y="262.34327" style="stroke: #000000; stroke-width: 0.6"/>
      </g>
     </g>
    </g>
    <g id="xtick_10">
     <g id="line2d_16">
      <g>
       <use xlink:href="#mc29b9a8347" x="248.091628" y="262.34327" style="stroke: #000000; stroke-width: 0.6"/>
      </g>
     </g>
    </g>
    <g id="xtick_11">
     <g id="line2d_17">
      <g>
       <use xlink:href="#mc29b9a8347" x="263.395748" y="262.34327" style="stroke: #000000; stroke-width: 0.6"/>
      </g>
     </g>
    </g>
    <g id="xtick_12">
     <g id="line2d_18">
      <g>
       <use xlink:href="#mc29b9a8347" x="276.894939" y="262.34327" style="stroke: #000000; stroke-width: 0.6"/>
      </g>
     </g>
    </g>
    <g id="xtick_13">
     <g id="line2d_19">
      <g>
       <use xlink:href="#mc29b9a8347" x="414.883051" y="262.34327" style="stroke: #000000; stroke-width: 0.6"/>
      </g>
     </g>
    </g>
    <g id="xtick_14">
     <g id="line2d_20">
      <g>
       <use xlink:href="#mc29b9a8347" x="447.854482" y="262.34327" style="stroke: #000000; stroke-width: 0.6"/>
      </g>
     </g>
    </g>
    <g id="xtick_15">
     <g id="line2d_21">
      <g>
       <use xlink:href="#mc29b9a8347" x="494.325104" y="262.34327" style="stroke: #000000; stroke-width: 0.6"/>
      </g>
     </g>
    </g>
    <g id="xtick_16">
     <g id="line2d_22">
      <g>
       <use xlink:href="#mc29b9a8347" x="511.992415" y="262.34327" style="stroke: #000000; stroke-width: 0.6"/>
      </g>
     </g>
    </g>
    <g id="xtick_17">
     <g id="line2d_23">
      <g>
       <use xlink:href="#mc29b9a8347" x="527.296535" y="262.34327" style="stroke: #000000; stroke-width: 0.6"/>
      </g>
     </g>
    </g>
    <g id="xtick_18">
     <g id="line2d_24">
      <g>
       <use xlink:href="#mc29b9a8347" x="540.795726" y="262.34327" style="stroke: #000000; stroke-width: 0.6"/>
      </g>
     </g>
    </g>
    <g id="text_7">
     <!-- Particle Diameter -->
     <g transform="translate(266.183041 287.119832) scale(0.1 -0.1)">
      <defs>
       <path id="DejaVuSans-50" d="M 1259 4147 
L 1259 2394 
L 2053 2394 
Q 2494 2394 2734 2622 
Q 2975 2850 2975 3272 
Q 2975 3691 2734 3919 
Q 2494 4147 2053 4147 
L 1259 4147 
z
M 628 4666 
L 2053 4666 
Q 2838 4666 3239 4311 
Q 3641 3956 3641 3272 
Q 3641 2581 3239 2228 
Q 2838 1875 2053 1875 
L 1259 1875 
L 1259 0 
L 628 0 
L 628 4666 
z
" transform="scale(0.015625)"/>
       <path id="DejaVuSans-61" d="M 2194 1759 
Q 1497 1759 1228 1600 
Q 959 1441 959 1056 
Q 959 750 1161 570 
Q 1363 391 1709 391 
Q 2188 391 2477 730 
Q 2766 1069 2766 1631 
L 2766 1759 
L 2194 1759 
z
M 3341 1997 
L 3341 0 
L 2766 0 
L 2766 531 
Q 2569 213 2275 61 
Q 1981 -91 1556 -91 
Q 1019 -91 701 211 
Q 384 513 384 1019 
Q 384 1609 779 1909 
Q 1175 2209 1959 2209 
L 2766 2209 
L 2766 2266 
Q 2766 2663 2505 2880 
Q 2244 3097 1772 3097 
Q 1472 3097 1187 3025 
Q 903 2953 641 2809 
L 641 3341 
Q 956 3463 1253 3523 
Q 1550 3584 1831 3584 
Q 2591 3584 2966 3190 
Q 3341 2797 3341 1997 
z
" transform="scale(0.015625)"/>
       <path id="DejaVuSans-72" d="M 2631 2963 
Q 2534 3019 2420 3045 
Q 2306 3072 2169 3072 
Q 1681 3072 1420 2755 
Q 1159 2438 1159 1844 
L 1159 0 
L 581 0 
L 581 3500 
L 1159 3500 
L 1159 2956 
Q 1341 3275 1631 3429 
Q 1922 3584 2338 3584 
Q 2397 3584 2469 3576 
Q 2541 3569 2628 3553 
L 2631 2963 
z
" transform="scale(0.015625)"/>
       <path id="DejaVuSans-74" d="M 1172 4494 
L 1172 3500 
L 2356 3500 
L 2356 3053 
L 1172 3053 
L 1172 1153 
Q 1172 725 1289 603 
Q 1406 481 1766 481 
L 2356 481 
L 2356 0 
L 1766 0 
Q 1100 0 847 248 
Q 594 497 594 1153 
L 594 3053 
L 172 3053 
L 172 3500 
L 594 3500 
L 594 4494 
L 1172 4494 
z
" transform="scale(0.015625)"/>
       <path id="DejaVuSans-69" d="M 603 3500 
L 1178 3500 
L 1178 0 
L 603 0 
L 603 3500 
z
M 603 4863 
L 1178 4863 
L 1178 4134 
L 603 4134 
L 603 4863 
z
" transform="scale(0.015625)"/>
       <path id="DejaVuSans-63" d="M 3122 3366 
L 3122 2828 
Q 2878 2963 2633 3030 
Q 2388 3097 2138 3097 
Q 1578 3097 1268 2742 
Q 959 2388 959 1747 
Q 959 1106 1268 751 
Q 1578 397 2138 397 
Q 2388 397 2633 464 
Q 2878 531 3122 666 
L 3122 134 
Q 2881 22 2623 -34 
Q 2366 -91 2075 -91 
Q 1284 -91 818 406 
Q 353 903 353 1747 
Q 353 2603 823 3093 
Q 1294 3584 2113 3584 
Q 2378 3584 2631 3529 
Q 2884 3475 3122 3366 
z
" transform="scale(0.015625)"/>
       <path id="DejaVuSans-6c" d="M 603 4863 
L 1178 4863 
L 1178 0 
L 603 0 
L 603 4863 
z
" transform="scale(0.015625)"/>
       <path id="DejaVuSans-65" d="M 3597 1894 
L 3597 1613 
L 953 1613 
Q 991 1019 1311 708 
Q 1631 397 2203 397 
Q 2534 397 2845 478 
Q 3156 559 3463 722 
L 3463 178 
Q 3153 47 2828 -22 
Q 2503 -91 2169 -91 
Q 1331 -91 842 396 
Q 353 884 353 1716 
Q 353 2575 817 3079 
Q 1281 3584 2069 3584 
Q 2775 3584 3186 3129 
Q 3597 2675 3597 1894 
z
M 3022 2063 
Q 3016 2534 2758 2815 
Q 2500 3097 2075 3097 
Q 1594 3097 1305 2825 
Q 1016 2553 972 2059 
L 3022 2063 
z
" transform="scale(0.015625)"/>
       <path id="DejaVuSans-44" d="M 1259 4147 
L 1259 519 
L 2022 519 
Q 2988 519 3436 956 
Q 3884 1394 3884 2338 
Q 3884 3275 3436 3711 
Q 2988 4147 2022 4147 
L 1259 4147 
z
M 628 4666 
L 1925 4666 
Q 3281 4666 3915 4102 
Q 4550 3538 4550 2338 
Q 4550 1131 3912 565 
Q 3275 0 1925 0 
L 628 0 
L 628 4666 
z
" transform="scale(0.015625)"/>
      </defs>
      <use xlink:href="#DejaVuSans-50"/>
      <use xlink:href="#DejaVuSans-61" transform="translate(55.802734 0)"/>
      <use xlink:href="#DejaVuSans-72" transform="translate(117.082031 0)"/>
      <use xlink:href="#DejaVuSans-74" transform="translate(158.195312 0)"/>
      <use xlink:href="#DejaVuSans-69" transform="translate(197.404297 0)"/>
      <use xlink:href="#DejaVuSans-63" transform="translate(225.1875 0)"/>
      <use xlink:href="#DejaVuSans-6c" transform="translate(280.167969 0)"/>
      <use xlink:href="#DejaVuSans-65" transform="translate(307.951172 0)"/>
      <use xlink:href="#DejaVuSans-20" transform="translate(369.474609 0)"/>
      <use xlink:href="#DejaVuSans-44" transform="translate(401.261719 0)"/>
      <use xlink:href="#DejaVuSans-69" transform="translate(478.263672 0)"/>
      <use xlink:href="#DejaVuSans-61" transform="translate(506.046875 0)"/>
      <use xlink:href="#DejaVuSans-6d" transform="translate(567.326172 0)"/>
      <use xlink:href="#DejaVuSans-65" transform="translate(664.738281 0)"/>
      <use xlink:href="#DejaVuSans-74" transform="translate(726.261719 0)"/>
      <use xlink:href="#DejaVuSans-65" transform="translate(765.470703 0)"/>
      <use xlink:href="#DejaVuSans-72" transform="translate(826.994141 0)"/>
     </g>
    </g>
   </g>
   <g id="matplotlib.axis_2">
    <g id="ytick_1">
     <g id="line2d_25">
      <path d="M 41.975938 262.34327 
L 577.19952 262.34327 
" clip-path="url(#p52c5960c65)" style="fill: none; stroke: #b0b0b0; stroke-opacity: 0.5; stroke-width: 0.5; stroke-linecap: square"/>
     </g>
     <g id="line2d_26">
      <defs>
       <path id="mfc3a70d5bd" d="M 0 0 
L 3.5 0 
" style="stroke: #000000; stroke-width: 0.8"/>
      </defs>
      <g>
       <use xlink:href="#mfc3a70d5bd" x="41.975938" y="262.34327" style="stroke: #000000; stroke-width: 0.8"/>
      </g>
     </g>
     <g id="text_8">
      <!-- $\mathdefault{0}$ -->
      <g transform="translate(32.075938 266.142489) scale(0.1 -0.1)">
       <use xlink:href="#DejaVuSans-30" transform="translate(0 0.78125)"/>
      </g>
     </g>
    </g>
    <g id="ytick_2">
     <g id="line2d_27">
      <path d="M 41.975938 229.186856 
L 577.19952 229.186856 
" clip-path="url(#p52c5960c65)" style="fill: none; stroke: #b0b0b0; stroke-opacity: 0.5; stroke-width: 0.5; stroke-linecap: square"/>
     </g>
     <g id="line2d_28">
      <g>
       <use xlink:href="#mfc3a70d5bd" x="41.975938" y="229.186856" style="stroke: #000000; stroke-width: 0.8"/>
      </g>
     </g>
     <g id="text_9">
      <!-- $\mathdefault{1}$ -->
      <g transform="translate(32.075938 232.986075) scale(0.1 -0.1)">
       <use xlink:href="#DejaVuSans-31" transform="translate(0 0.09375)"/>
      </g>
     </g>
    </g>
    <g id="ytick_3">
     <g id="line2d_29">
      <path d="M 41.975938 196.030443 
L 577.19952 196.030443 
" clip-path="url(#p52c5960c65)" style="fill: none; stroke: #b0b0b0; stroke-opacity: 0.5; stroke-width: 0.5; stroke-linecap: square"/>
     </g>
     <g id="line2d_30">
      <g>
       <use xlink:href="#mfc3a70d5bd" x="41.975938" y="196.030443" style="stroke: #000000; stroke-width: 0.8"/>
      </g>
     </g>
     <g id="text_10">
      <!-- $\mathdefault{2}$ -->
      <g transform="translate(32.075938 199.829661) scale(0.1 -0.1)">
       <use xlink:href="#DejaVuSans-32" transform="translate(0 0.78125)"/>
      </g>
     </g>
    </g>
    <g id="ytick_4">
     <g id="line2d_31">
      <path d="M 41.975938 162.874029 
L 577.19952 162.874029 
" clip-path="url(#p52c5960c65)" style="fill: none; stroke: #b0b0b0; stroke-opacity: 0.5; stroke-width: 0.5; stroke-linecap: square"/>
     </g>
     <g id="line2d_32">
      <g>
       <use xlink:href="#mfc3a70d5bd" x="41.975938" y="162.874029" style="stroke: #000000; stroke-width: 0.8"/>
      </g>
     </g>
     <g id="text_11">
      <!-- $\mathdefault{3}$ -->
      <g transform="translate(32.075938 166.673248) scale(0.1 -0.1)">
       <defs>
        <path id="DejaVuSans-33" d="M 2597 2516 
Q 3050 2419 3304 2112 
Q 3559 1806 3559 1356 
Q 3559 666 3084 287 
Q 2609 -91 1734 -91 
Q 1441 -91 1130 -33 
Q 819 25 488 141 
L 488 750 
Q 750 597 1062 519 
Q 1375 441 1716 441 
Q 2309 441 2620 675 
Q 2931 909 2931 1356 
Q 2931 1769 2642 2001 
Q 2353 2234 1838 2234 
L 1294 2234 
L 1294 2753 
L 1863 2753 
Q 2328 2753 2575 2939 
Q 2822 3125 2822 3475 
Q 2822 3834 2567 4026 
Q 2313 4219 1838 4219 
Q 1578 4219 1281 4162 
Q 984 4106 628 3988 
L 628 4550 
Q 988 4650 1302 4700 
Q 1616 4750 1894 4750 
Q 2613 4750 3031 4423 
Q 3450 4097 3450 3541 
Q 3450 3153 3228 2886 
Q 3006 2619 2597 2516 
z
" transform="scale(0.015625)"/>
       </defs>
       <use xlink:href="#DejaVuSans-33" transform="translate(0 0.78125)"/>
      </g>
     </g>
    </g>
    <g id="ytick_5">
     <g id="line2d_33">
      <path d="M 41.975938 129.717615 
L 577.19952 129.717615 
" clip-path="url(#p52c5960c65)" style="fill: none; stroke: #b0b0b0; stroke-opacity: 0.5; stroke-width: 0.5; stroke-linecap: square"/>
     </g>
     <g id="line2d_34">
      <g>
       <use xlink:href="#mfc3a70d5bd" x="41.975938" y="129.717615" style="stroke: #000000; stroke-width: 0.8"/>
      </g>
     </g>
     <g id="text_12">
      <!-- $\mathdefault{4}$ -->
      <g transform="translate(32.075938 133.516834) scale(0.1 -0.1)">
       <defs>
        <path id="DejaVuSans-34" d="M 2419 4116 
L 825 1625 
L 2419 1625 
L 2419 4116 
z
M 2253 4666 
L 3047 4666 
L 3047 1625 
L 3713 1625 
L 3713 1100 
L 3047 1100 
L 3047 0 
L 2419 0 
L 2419 1100 
L 313 1100 
L 313 1709 
L 2253 4666 
z
" transform="scale(0.015625)"/>
       </defs>
       <use xlink:href="#DejaVuSans-34" transform="translate(0 0.09375)"/>
      </g>
     </g>
    </g>
    <g id="ytick_6">
     <g id="line2d_35">
      <path d="M 41.975938 96.561201 
L 577.19952 96.561201 
" clip-path="url(#p52c5960c65)" style="fill: none; stroke: #b0b0b0; stroke-opacity: 0.5; stroke-width: 0.5; stroke-linecap: square"/>
     </g>
     <g id="line2d_36">
      <g>
       <use xlink:href="#mfc3a70d5bd" x="41.975938" y="96.561201" style="stroke: #000000; stroke-width: 0.8"/>
      </g>
     </g>
     <g id="text_13">
      <!-- $\mathdefault{5}$ -->
      <g transform="translate(32.075938 100.36042) scale(0.1 -0.1)">
       <use xlink:href="#DejaVuSans-35" transform="translate(0 0.09375)"/>
      </g>
     </g>
    </g>
    <g id="ytick_7">
     <g id="line2d_37">
      <path d="M 41.975938 63.404788 
L 577.19952 63.404788 
" clip-path="url(#p52c5960c65)" style="fill: none; stroke: #b0b0b0; stroke-opacity: 0.5; stroke-width: 0.5; stroke-linecap: square"/>
     </g>
     <g id="line2d_38">
      <g>
       <use xlink:href="#mfc3a70d5bd" x="41.975938" y="63.404788" style="stroke: #000000; stroke-width: 0.8"/>
      </g>
     </g>
     <g id="text_14">
      <!-- $\mathdefault{6}$ -->
      <g transform="translate(32.075938 67.204006) scale(0.1 -0.1)">
       <defs>
        <path id="DejaVuSans-36" d="M 2113 2584 
Q 1688 2584 1439 2293 
Q 1191 2003 1191 1497 
Q 1191 994 1439 701 
Q 1688 409 2113 409 
Q 2538 409 2786 701 
Q 3034 994 3034 1497 
Q 3034 2003 2786 2293 
Q 2538 2584 2113 2584 
z
M 3366 4563 
L 3366 3988 
Q 3128 4100 2886 4159 
Q 2644 4219 2406 4219 
Q 1781 4219 1451 3797 
Q 1122 3375 1075 2522 
Q 1259 2794 1537 2939 
Q 1816 3084 2150 3084 
Q 2853 3084 3261 2657 
Q 3669 2231 3669 1497 
Q 3669 778 3244 343 
Q 2819 -91 2113 -91 
Q 1303 -91 875 529 
Q 447 1150 447 2328 
Q 447 3434 972 4092 
Q 1497 4750 2381 4750 
Q 2619 4750 2861 4703 
Q 3103 4656 3366 4563 
z
" transform="scale(0.015625)"/>
       </defs>
       <use xlink:href="#DejaVuSans-36" transform="translate(0 0.78125)"/>
      </g>
     </g>
    </g>
    <g id="text_15">
     <!-- Normalized Concentration -->
     <g transform="translate(14.798438 214.193594) rotate(-90) scale(0.1 -0.1)">
      <defs>
       <path id="DejaVuSans-4e" d="M 628 4666 
L 1478 4666 
L 3547 763 
L 3547 4666 
L 4159 4666 
L 4159 0 
L 3309 0 
L 1241 3903 
L 1241 0 
L 628 0 
L 628 4666 
z
" transform="scale(0.015625)"/>
       <path id="DejaVuSans-6f" d="M 1959 3097 
Q 1497 3097 1228 2736 
Q 959 2375 959 1747 
Q 959 1119 1226 758 
Q 1494 397 1959 397 
Q 2419 397 2687 759 
Q 2956 1122 2956 1747 
Q 2956 2369 2687 2733 
Q 2419 3097 1959 3097 
z
M 1959 3584 
Q 2709 3584 3137 3096 
Q 3566 2609 3566 1747 
Q 3566 888 3137 398 
Q 2709 -91 1959 -91 
Q 1206 -91 779 398 
Q 353 888 353 1747 
Q 353 2609 779 3096 
Q 1206 3584 1959 3584 
z
" transform="scale(0.015625)"/>
       <path id="DejaVuSans-7a" d="M 353 3500 
L 3084 3500 
L 3084 2975 
L 922 459 
L 3084 459 
L 3084 0 
L 275 0 
L 275 525 
L 2438 3041 
L 353 3041 
L 353 3500 
z
" transform="scale(0.015625)"/>
       <path id="DejaVuSans-64" d="M 2906 2969 
L 2906 4863 
L 3481 4863 
L 3481 0 
L 2906 0 
L 2906 525 
Q 2725 213 2448 61 
Q 2172 -91 1784 -91 
Q 1150 -91 751 415 
Q 353 922 353 1747 
Q 353 2572 751 3078 
Q 1150 3584 1784 3584 
Q 2172 3584 2448 3432 
Q 2725 3281 2906 2969 
z
M 947 1747 
Q 947 1113 1208 752 
Q 1469 391 1925 391 
Q 2381 391 2643 752 
Q 2906 1113 2906 1747 
Q 2906 2381 2643 2742 
Q 2381 3103 1925 3103 
Q 1469 3103 1208 2742 
Q 947 2381 947 1747 
z
" transform="scale(0.015625)"/>
       <path id="DejaVuSans-43" d="M 4122 4306 
L 4122 3641 
Q 3803 3938 3442 4084 
Q 3081 4231 2675 4231 
Q 1875 4231 1450 3742 
Q 1025 3253 1025 2328 
Q 1025 1406 1450 917 
Q 1875 428 2675 428 
Q 3081 428 3442 575 
Q 3803 722 4122 1019 
L 4122 359 
Q 3791 134 3420 21 
Q 3050 -91 2638 -91 
Q 1578 -91 968 557 
Q 359 1206 359 2328 
Q 359 3453 968 4101 
Q 1578 4750 2638 4750 
Q 3056 4750 3426 4639 
Q 3797 4528 4122 4306 
z
" transform="scale(0.015625)"/>
      </defs>
      <use xlink:href="#DejaVuSans-4e"/>
      <use xlink:href="#DejaVuSans-6f" transform="translate(74.804688 0)"/>
      <use xlink:href="#DejaVuSans-72" transform="translate(135.986328 0)"/>
      <use xlink:href="#DejaVuSans-6d" transform="translate(175.349609 0)"/>
      <use xlink:href="#DejaVuSans-61" transform="translate(272.761719 0)"/>
      <use xlink:href="#DejaVuSans-6c" transform="translate(334.041016 0)"/>
      <use xlink:href="#DejaVuSans-69" transform="translate(361.824219 0)"/>
      <use xlink:href="#DejaVuSans-7a" transform="translate(389.607422 0)"/>
      <use xlink:href="#DejaVuSans-65" transform="translate(442.097656 0)"/>
      <use xlink:href="#DejaVuSans-64" transform="translate(503.621094 0)"/>
      <use xlink:href="#DejaVuSans-20" transform="translate(567.097656 0)"/>
      <use xlink:href="#DejaVuSans-43" transform="translate(598.884766 0)"/>
      <use xlink:href="#DejaVuSans-6f" transform="translate(668.708984 0)"/>
      <use xlink:href="#DejaVuSans-6e" transform="translate(729.890625 0)"/>
      <use xlink:href="#DejaVuSans-63" transform="translate(793.269531 0)"/>
      <use xlink:href="#DejaVuSans-65" transform="translate(848.25 0)"/>
      <use xlink:href="#DejaVuSans-6e" transform="translate(909.773438 0)"/>
      <use xlink:href="#DejaVuSans-74" transform="translate(973.152344 0)"/>
      <use xlink:href="#DejaVuSans-72" transform="translate(1012.361328 0)"/>
      <use xlink:href="#DejaVuSans-61" transform="translate(1053.474609 0)"/>
      <use xlink:href="#DejaVuSans-74" transform="translate(1114.753906 0)"/>
      <use xlink:href="#DejaVuSans-69" transform="translate(1153.962891 0)"/>
      <use xlink:href="#DejaVuSans-6f" transform="translate(1181.746094 0)"/>
      <use xlink:href="#DejaVuSans-6e" transform="translate(1242.927734 0)"/>
     </g>
     <!-- ΔN/ΔlogDₚ, in cm⁻³ -->
     <g transform="translate(25.99625 196.345937) rotate(-90) scale(0.1 -0.1)">
      <defs>
       <path id="DejaVuSans-394" d="M 2188 4044 
L 906 525 
L 3472 525 
L 2188 4044 
z
M 50 0 
L 1831 4666 
L 2547 4666 
L 4325 0 
L 50 0 
z
" transform="scale(0.015625)"/>
       <path id="DejaVuSans-2f" d="M 1625 4666 
L 2156 4666 
L 531 -594 
L 0 -594 
L 1625 4666 
z
" transform="scale(0.015625)"/>
       <path id="DejaVuSans-67" d="M 2906 1791 
Q 2906 2416 2648 2759 
Q 2391 3103 1925 3103 
Q 1463 3103 1205 2759 
Q 947 2416 947 1791 
Q 947 1169 1205 825 
Q 1463 481 1925 481 
Q 2391 481 2648 825 
Q 2906 1169 2906 1791 
z
M 3481 434 
Q 3481 -459 3084 -895 
Q 2688 -1331 1869 -1331 
Q 1566 -1331 1297 -1286 
Q 1028 -1241 775 -1147 
L 775 -588 
Q 1028 -725 1275 -790 
Q 1522 -856 1778 -856 
Q 2344 -856 2625 -561 
Q 2906 -266 2906 331 
L 2906 616 
Q 2728 306 2450 153 
Q 2172 0 1784 0 
Q 1141 0 747 490 
Q 353 981 353 1791 
Q 353 2603 747 3093 
Q 1141 3584 1784 3584 
Q 2172 3584 2450 3431 
Q 2728 3278 2906 2969 
L 2906 3500 
L 3481 3500 
L 3481 434 
z
" transform="scale(0.015625)"/>
       <path id="DejaVuSans-209a" d="M 731 269 
L 731 -771 
L 366 -771 
L 366 1935 
L 731 1935 
L 731 1638 
Q 844 1813 1019 1897 
Q 1194 1982 1434 1982 
Q 1838 1982 2088 1701 
Q 2338 1416 2338 953 
Q 2338 491 2088 207 
Q 1838 -74 1434 -74 
Q 1194 -74 1019 10 
Q 844 94 731 269 
z
M 1800 397 
Q 1963 597 1963 953 
Q 1963 1310 1800 1510 
Q 1634 1713 1346 1713 
Q 1059 1713 894 1510 
Q 731 1310 731 953 
Q 731 597 894 397 
Q 1059 194 1346 194 
Q 1634 194 1800 397 
z
" transform="scale(0.015625)"/>
       <path id="DejaVuSans-2c" d="M 750 794 
L 1409 794 
L 1409 256 
L 897 -744 
L 494 -744 
L 750 256 
L 750 794 
z
" transform="scale(0.015625)"/>
       <path id="DejaVuSans-207b" d="M 428 3359 
L 2950 3359 
L 2950 3063 
L 428 3063 
L 428 3359 
z
" transform="scale(0.015625)"/>
       <path id="DejaVuSans-b3" d="M 1638 3500 
Q 1925 3444 2083 3273 
Q 2241 3103 2241 2847 
Q 2241 2459 1944 2250 
Q 1647 2041 1094 2041 
Q 916 2041 720 2073 
Q 525 2106 306 2169 
L 306 2547 
Q 469 2463 655 2422 
Q 841 2381 1050 2381 
Q 1391 2381 1578 2504 
Q 1766 2628 1766 2847 
Q 1766 3078 1592 3197 
Q 1419 3316 1081 3316 
L 813 3316 
L 813 3653 
L 1106 3653 
Q 1400 3653 1551 3751 
Q 1703 3850 1703 4038 
Q 1703 4219 1547 4314 
Q 1391 4409 1094 4409 
Q 969 4409 809 4381 
Q 650 4353 397 4281 
L 397 4641 
Q 625 4694 825 4722 
Q 1025 4750 1197 4750 
Q 1647 4750 1911 4565 
Q 2175 4381 2175 4072 
Q 2175 3856 2034 3706 
Q 1894 3556 1638 3500 
z
" transform="scale(0.015625)"/>
      </defs>
      <use xlink:href="#DejaVuSans-394"/>
      <use xlink:href="#DejaVuSans-4e" transform="translate(68.408203 0)"/>
      <use xlink:href="#DejaVuSans-2f" transform="translate(143.212891 0)"/>
      <use xlink:href="#DejaVuSans-394" transform="translate(176.904297 0)"/>
      <use xlink:href="#DejaVuSans-6c" transform="translate(245.3125 0)"/>
      <use xlink:href="#DejaVuSans-6f" transform="translate(273.095703 0)"/>
      <use xlink:href="#DejaVuSans-67" transform="translate(334.277344 0)"/>
      <use xlink:href="#DejaVuSans-44" transform="translate(397.753906 0)"/>
      <use xlink:href="#DejaVuSans-209a" transform="translate(474.755859 0)"/>
      <use xlink:href="#DejaVuSans-2c" transform="translate(517.578125 0)"/>
      <use xlink:href="#DejaVuSans-20" transform="translate(549.365234 0)"/>
      <use xlink:href="#DejaVuSans-69" transform="translate(581.152344 0)"/>
      <use xlink:href="#DejaVuSans-6e" transform="translate(608.935547 0)"/>
      <use xlink:href="#DejaVuSans-20" transform="translate(672.314453 0)"/>
      <use xlink:href="#DejaVuSans-63" transform="translate(704.101562 0)"/>
      <use xlink:href="#DejaVuSans-6d" transform="translate(759.082031 0)"/>
      <use xlink:href="#DejaVuSans-207b" transform="translate(856.494141 0)"/>
      <use xlink:href="#DejaVuSans-b3" transform="translate(909.277344 0)"/>
     </g>
    </g>
    <g id="text_16">
     <!-- $\times\mathdefault{10^{4}}\mathdefault{}$ -->
     <g transform="translate(41.975938 32.412667) scale(0.1 -0.1)">
      <defs>
       <path id="DejaVuSans-d7" d="M 4488 3438 
L 3059 2003 
L 4488 575 
L 4116 197 
L 2681 1631 
L 1247 197 
L 878 575 
L 2303 2003 
L 878 3438 
L 1247 3816 
L 2681 2381 
L 4116 3816 
L 4488 3438 
z
" transform="scale(0.015625)"/>
      </defs>
      <use xlink:href="#DejaVuSans-d7" transform="translate(0 0.684375)"/>
      <use xlink:href="#DejaVuSans-31" transform="translate(83.789062 0.684375)"/>
      <use xlink:href="#DejaVuSans-30" transform="translate(147.412109 0.684375)"/>
      <use xlink:href="#DejaVuSans-34" transform="translate(211.992188 38.965625) scale(0.7)"/>
     </g>
    </g>
   </g>
   <g id="patch_62">
    <path d="M 41.975938 262.34327 
L 41.975938 35.412667 
" style="fill: none; stroke: #000000; stroke-width: 0.8; stroke-linejoin: miter; stroke-linecap: square"/>
   </g>
   <g id="patch_63">
    <path d="M 577.19952 262.34327 
L 577.19952 35.412667 
" style="fill: none; stroke: #000000; stroke-width: 0.8; stroke-linejoin: miter; stroke-linecap: square"/>
   </g>
   <g id="patch_64">
    <path d="M 41.975937 262.34327 
L 577.19952 262.34327 
" style="fill: none; stroke: #000000; stroke-width: 0.8; stroke-linejoin: miter; stroke-linecap: square"/>
   </g>
   <g id="patch_65">
    <path d="M 41.975937 35.412667 
L 577.19952 35.412667 
" style="fill: none; stroke: #000000; stroke-width: 0.8; stroke-linejoin: miter; stroke-linecap: square"/>
   </g>
   <g id="legend_1">
    <g id="patch_66">
     <path d="M 460.01202 58.090792 
L 570.19952 58.090792 
Q 572.19952 58.090792 572.19952 56.090792 
L 572.19952 42.412667 
Q 572.19952 40.412667 570.19952 40.412667 
L 460.01202 40.412667 
Q 458.01202 40.412667 458.01202 42.412667 
L 458.01202 56.090792 
Q 458.01202 58.090792 460.01202 58.090792 
z
" style="fill: #ffffff; opacity: 0.8; stroke: #cccccc; stroke-linejoin: miter"/>
    </g>
    <g id="patch_67">
     <path d="M 462.01202 52.011105 
L 482.01202 52.011105 
L 482.01202 45.011105 
L 462.01202 45.011105 
z
" style="fill: #648fff"/>
    </g>
    <g id="text_17">
     <!-- Measurement 1 -->
     <g transform="translate(490.01202 52.011105) scale(0.1 -0.1)">
      <defs>
       <path id="DejaVuSans-4d" d="M 628 4666 
L 1569 4666 
L 2759 1491 
L 3956 4666 
L 4897 4666 
L 4897 0 
L 4281 0 
L 4281 4097 
L 3078 897 
L 2444 897 
L 1241 4097 
L 1241 0 
L 628 0 
L 628 4666 
z
" transform="scale(0.015625)"/>
       <path id="DejaVuSans-73" d="M 2834 3397 
L 2834 2853 
Q 2591 2978 2328 3040 
Q 2066 3103 1784 3103 
Q 1356 3103 1142 2972 
Q 928 2841 928 2578 
Q 928 2378 1081 2264 
Q 1234 2150 1697 2047 
L 1894 2003 
Q 2506 1872 2764 1633 
Q 3022 1394 3022 966 
Q 3022 478 2636 193 
Q 2250 -91 1575 -91 
Q 1294 -91 989 -36 
Q 684 19 347 128 
L 347 722 
Q 666 556 975 473 
Q 1284 391 1588 391 
Q 1994 391 2212 530 
Q 2431 669 2431 922 
Q 2431 1156 2273 1281 
Q 2116 1406 1581 1522 
L 1381 1569 
Q 847 1681 609 1914 
Q 372 2147 372 2553 
Q 372 3047 722 3315 
Q 1072 3584 1716 3584 
Q 2034 3584 2315 3537 
Q 2597 3491 2834 3397 
z
" transform="scale(0.015625)"/>
       <path id="DejaVuSans-75" d="M 544 1381 
L 544 3500 
L 1119 3500 
L 1119 1403 
Q 1119 906 1312 657 
Q 1506 409 1894 409 
Q 2359 409 2629 706 
Q 2900 1003 2900 1516 
L 2900 3500 
L 3475 3500 
L 3475 0 
L 2900 0 
L 2900 538 
Q 2691 219 2414 64 
Q 2138 -91 1772 -91 
Q 1169 -91 856 284 
Q 544 659 544 1381 
z
M 1991 3584 
L 1991 3584 
z
" transform="scale(0.015625)"/>
      </defs>
      <use xlink:href="#DejaVuSans-4d"/>
      <use xlink:href="#DejaVuSans-65" transform="translate(86.279297 0)"/>
      <use xlink:href="#DejaVuSans-61" transform="translate(147.802734 0)"/>
      <use xlink:href="#DejaVuSans-73" transform="translate(209.082031 0)"/>
      <use xlink:href="#DejaVuSans-75" transform="translate(261.181641 0)"/>
      <use xlink:href="#DejaVuSans-72" transform="translate(324.560547 0)"/>
      <use xlink:href="#DejaVuSans-65" transform="translate(363.423828 0)"/>
      <use xlink:href="#DejaVuSans-6d" transform="translate(424.947266 0)"/>
      <use xlink:href="#DejaVuSans-65" transform="translate(522.359375 0)"/>
      <use xlink:href="#DejaVuSans-6e" transform="translate(583.882812 0)"/>
      <use xlink:href="#DejaVuSans-74" transform="translate(647.261719 0)"/>
      <use xlink:href="#DejaVuSans-20" transform="translate(686.470703 0)"/>
      <use xlink:href="#DejaVuSans-31" transform="translate(718.257812 0)"/>
     </g>
    </g>
   </g>
  </g>
  <g id="text_18">
   <!-- Histogram -->
   <g transform="translate(261.07476 16.318125) scale(0.12 -0.12)">
    <defs>
     <path id="DejaVuSans-48" d="M 628 4666 
L 1259 4666 
L 1259 2753 
L 3553 2753 
L 3553 4666 
L 4184 4666 
L 4184 0 
L 3553 0 
L 3553 2222 
L 1259 2222 
L 1259 0 
L 628 0 
L 628 4666 
z
" transform="scale(0.015625)"/>
    </defs>
    <use xlink:href="#DejaVuSans-48"/>
    <use xlink:href="#DejaVuSans-69" transform="translate(75.195312 0)"/>
    <use xlink:href="#DejaVuSans-73" transform="translate(102.978516 0)"/>
    <use xlink:href="#DejaVuSans-74" transform="translate(155.078125 0)"/>
    <use xlink:href="#DejaVuSans-6f" transform="translate(194.287109 0)"/>
    <use xlink:href="#DejaVuSans-67" transform="translate(255.46875 0)"/>
    <use xlink:href="#DejaVuSans-72" transform="translate(318.945312 0)"/>
    <use xlink:href="#DejaVuSans-61" transform="translate(360.058594 0)"/>
    <use xlink:href="#DejaVuSans-6d" transform="translate(421.337891 0)"/>
   </g>
  </g>
 </g>
 <defs>
  <clipPath id="p52c5960c65">
   <rect x="41.975938" y="35.412667" width="535.223583" height="226.930603"/>
  </clipPath>
 </defs>
</svg>
